<svg width="74" height="88" viewBox="0 0 74 88" fill="none" xmlns="http://www.w3.org/2000/svg">
<rect x="7" y="4" width="60" height="60" rx="30" fill="#B5D406"/>
<g filter="url(#filter0_d_163_40)">
<rect width="14" height="28" transform="translate(30 20)" fill="white" fill-opacity="0.01"/>
<path d="M35.5664 28.8379L36.2109 28.1934C36.5039 27.9297 36.9434 27.9297 37.207 28.1934L42.9199 33.877C43.1836 34.1699 43.1836 34.6094 42.9199 34.873L37.207 40.5859C36.9434 40.8496 36.5039 40.8496 36.2109 40.5859L35.5664 39.9414C35.3027 39.6484 35.3027 39.209 35.5664 38.916L39.1113 35.5469H30.7031C30.293 35.5469 30 35.2539 30 34.8438V33.9062C30 33.5254 30.293 33.2031 30.7031 33.2031H39.1113L35.5664 29.8633C35.3027 29.5703 35.2734 29.1309 35.5664 28.8379Z" fill="white"/>
</g>
<defs>
<filter id="filter0_d_163_40" x="0" y="0" width="74" height="88" filterUnits="userSpaceOnUse" color-interpolation-filters="sRGB">
<feFlood flood-opacity="0" result="BackgroundImageFix"/>
<feColorMatrix in="SourceAlpha" type="matrix" values="0 0 0 0 0 0 0 0 0 0 0 0 0 0 0 0 0 0 127 0" result="hardAlpha"/>
<feOffset dy="10"/>
<feGaussianBlur stdDeviation="15"/>
<feComposite in2="hardAlpha" operator="out"/>
<feColorMatrix type="matrix" values="0 0 0 0 1 0 0 0 0 1 0 0 0 0 1 0 0 0 0.12 0"/>
<feBlend mode="normal" in2="BackgroundImageFix" result="effect1_dropShadow_163_40"/>
<feBlend mode="normal" in="SourceGraphic" in2="effect1_dropShadow_163_40" result="shape"/>
</filter>
</defs>
</svg>
