<svg width="293" height="253" viewBox="0 0 293 253" fill="none" xmlns="http://www.w3.org/2000/svg">
<g filter="url(#filter0_d_221_137)">
<rect x="14" y="62.3289" width="215.244" height="163.064" rx="15.2193" transform="rotate(-12.7023 14 62.3289)" fill="white"/>
<path d="M52.8833 145.845C58.8266 150.044 73.2449 154.549 83.372 138.972C96.0309 119.502 86.9584 53.1714 118.723 75.4321C144.135 93.2408 162.254 95.5855 162.95 81.2632C163.611 67.6754 168.473 16.5355 195.269 53.8201C201.15 62.004 211.503 57.5159 216.376 50.9692" stroke="#DAFF4F" stroke-width="1.63064"/>
<path d="M83.372 138.972C73.2449 154.549 58.8266 150.044 52.8833 145.845L60.4481 179.406L236.387 139.749L216.376 50.9692C211.503 57.5159 201.15 62.004 195.269 53.8201C168.473 16.5355 163.611 67.6753 162.95 81.2632C162.254 95.5855 144.135 93.2407 118.723 75.4321C86.9584 53.1714 96.0309 119.502 83.372 138.972Z" fill="url(#paint0_linear_221_137)" fill-opacity="0.7"/>
<rect x="124.797" y="45.1555" width="30.3347" height="146.344" rx="4.34837" transform="rotate(-12.7023 124.797 45.1555)" fill="url(#paint1_linear_221_137)"/>
<path d="M165.216 142.526C165.295 142.877 165.303 143.213 165.24 143.534C165.172 143.856 165.048 144.145 164.866 144.399C164.684 144.653 164.462 144.856 164.2 145.009L163.798 144.437C164.124 144.223 164.354 143.963 164.488 143.657C164.616 143.347 164.639 143.014 164.559 142.658C164.51 142.44 164.432 142.258 164.326 142.11C164.22 141.962 164.095 141.858 163.951 141.797C163.802 141.732 163.643 141.718 163.474 141.756C163.242 141.808 163.074 141.916 162.97 142.08C162.861 142.24 162.8 142.454 162.787 142.722L162.705 143.809C162.671 144.238 162.545 144.589 162.326 144.862C162.106 145.135 161.824 145.311 161.477 145.389C161.175 145.457 160.894 145.445 160.634 145.353C160.368 145.256 160.142 145.094 159.955 144.866C159.762 144.634 159.629 144.352 159.554 144.02C159.479 143.689 159.471 143.376 159.53 143.082C159.587 142.783 159.696 142.517 159.857 142.283C160.012 142.05 160.209 141.86 160.446 141.713L160.846 142.278C160.561 142.467 160.366 142.698 160.261 142.972C160.152 143.246 160.133 143.544 160.206 143.866C160.25 144.064 160.324 144.231 160.428 144.369C160.526 144.503 160.649 144.598 160.796 144.653C160.938 144.704 161.095 144.71 161.269 144.671C161.472 144.626 161.638 144.521 161.767 144.356C161.896 144.192 161.974 143.969 161.999 143.688L162.064 142.698C162.1 142.232 162.216 141.86 162.413 141.582C162.61 141.303 162.892 141.123 163.258 141.04C163.56 140.972 163.845 140.991 164.114 141.097C164.381 141.198 164.612 141.372 164.809 141.619C164.999 141.862 165.134 142.164 165.216 142.526ZM165.944 142.713L158.929 144.294L158.804 143.737L165.819 142.156L165.944 142.713ZM163.891 137.065L158.992 138.169L159.228 139.216L158.597 139.358L158.195 137.576L163.726 136.33L163.891 137.065ZM163.393 134.854L162.888 134.968L160.888 133.812C160.498 133.582 160.179 133.402 159.931 133.271C159.682 133.134 159.467 133.042 159.284 132.995C159.102 132.948 158.919 132.945 158.736 132.986C158.434 133.054 158.222 133.196 158.099 133.411C157.975 133.626 157.947 133.879 158.013 134.171C158.08 134.468 158.223 134.701 158.443 134.87C158.658 135.04 158.931 135.129 159.26 135.138L159.238 135.837C158.927 135.84 158.643 135.779 158.386 135.655C158.129 135.531 157.912 135.353 157.736 135.123C157.559 134.892 157.436 134.623 157.367 134.317C157.291 133.98 157.291 133.671 157.368 133.388C157.439 133.102 157.574 132.861 157.774 132.665C157.974 132.464 158.227 132.329 158.533 132.26C158.736 132.214 158.944 132.211 159.156 132.252C159.368 132.293 159.601 132.37 159.856 132.484C160.105 132.6 160.401 132.757 160.742 132.955L162.534 133.987L161.944 131.366L162.575 131.224L163.393 134.854ZM162.012 128.311C162.078 128.603 162.087 128.887 162.04 129.163C161.993 129.439 161.896 129.69 161.749 129.915C161.597 130.142 161.4 130.329 161.158 130.477L160.767 129.918C161.021 129.752 161.199 129.54 161.302 129.283C161.406 129.025 161.424 128.751 161.359 128.459C161.307 128.231 161.217 128.038 161.088 127.88C160.958 127.722 160.799 127.612 160.608 127.551C160.416 127.485 160.202 127.479 159.964 127.533C159.722 127.587 159.53 127.685 159.391 127.826C159.245 127.963 159.147 128.13 159.098 128.328C159.049 128.527 159.051 128.742 159.103 128.975C159.12 129.049 159.144 129.129 159.174 129.216C159.202 129.298 159.233 129.367 159.267 129.422L158.968 129.653L156.831 128.582L157.383 131.032L156.752 131.174L156.014 127.9L156.623 127.763L158.678 128.782L158.495 128.87C158.43 128.536 158.441 128.227 158.528 127.942C158.614 127.657 158.765 127.415 158.98 127.216C159.19 127.018 159.459 126.882 159.785 126.808C160.122 126.733 160.445 126.746 160.754 126.848C161.063 126.95 161.329 127.126 161.552 127.378C161.775 127.629 161.928 127.94 162.012 128.311ZM161.142 124.87L160.252 125.07L160.089 124.35L160.98 124.149L161.142 124.87ZM160.638 122.632L160.133 122.746L158.133 121.59C157.743 121.361 157.425 121.18 157.177 121.049C156.927 120.913 156.712 120.821 156.529 120.774C156.347 120.726 156.164 120.723 155.981 120.764C155.679 120.832 155.467 120.974 155.344 121.189C155.221 121.404 155.192 121.657 155.258 121.949C155.325 122.246 155.468 122.479 155.688 122.648C155.903 122.818 156.176 122.907 156.505 122.916L156.484 123.615C156.172 123.618 155.888 123.557 155.631 123.433C155.374 123.309 155.158 123.132 154.981 122.901C154.804 122.671 154.681 122.402 154.612 122.095C154.536 121.758 154.537 121.449 154.613 121.166C154.684 120.88 154.819 120.639 155.02 120.443C155.219 120.242 155.472 120.107 155.779 120.038C155.982 119.992 156.189 119.99 156.401 120.03C156.613 120.071 156.846 120.148 157.101 120.263C157.35 120.378 157.646 120.535 157.987 120.734L159.78 121.765L159.189 119.144L159.82 119.002L160.638 122.632ZM159.569 117.891L159.065 118.005L157.065 116.849C156.675 116.62 156.356 116.439 156.108 116.308C155.859 116.172 155.643 116.08 155.461 116.033C155.279 115.985 155.096 115.982 154.913 116.024C154.611 116.092 154.398 116.233 154.275 116.448C154.152 116.663 154.123 116.917 154.189 117.209C154.256 117.506 154.4 117.738 154.62 117.907C154.835 118.077 155.107 118.167 155.437 118.175L155.415 118.875C155.104 118.877 154.819 118.816 154.563 118.692C154.306 118.568 154.089 118.391 153.912 118.16C153.736 117.93 153.613 117.661 153.543 117.354C153.468 117.018 153.468 116.708 153.545 116.426C153.615 116.139 153.751 115.898 153.951 115.702C154.15 115.501 154.403 115.366 154.71 115.297C154.913 115.251 155.12 115.249 155.332 115.289C155.544 115.33 155.778 115.407 156.032 115.522C156.282 115.637 156.577 115.794 156.918 115.993L158.711 117.024L158.12 114.404L158.751 114.261L159.569 117.891Z" fill="#DAFF4F"/>
<rect x="150.517" y="159.261" width="30.3347" height="29.3756" rx="4.34837" transform="rotate(-12.7023 150.517 159.261)" fill="#ABD511"/>
<path d="M65.4738 196.008L64.3163 190.873L64.7988 190.764L68.7853 194.407L68.5992 194.449L67.625 190.127L68.1765 190.003L69.334 195.138L68.8515 195.247L64.8588 191.576L65.0449 191.534L66.0253 195.884L65.4738 196.008ZM72.2225 194.574C71.8732 194.652 71.5375 194.641 71.2153 194.54C70.892 194.434 70.6128 194.256 70.3775 194.005C70.1458 193.748 69.9879 193.433 69.904 193.061C69.8212 192.693 69.8298 192.346 69.93 192.019C70.0302 191.693 70.2018 191.415 70.4448 191.186C70.6914 190.952 70.9939 190.794 71.3524 190.714C71.7108 190.633 72.0489 190.644 72.3665 190.746C72.6887 190.847 72.9628 191.024 73.1889 191.278C73.4196 191.53 73.5769 191.842 73.6608 192.214C73.7458 192.591 73.7364 192.946 73.6326 193.278C73.5278 193.606 73.3516 193.885 73.104 194.114C72.861 194.343 72.5671 194.496 72.2225 194.574ZM72.1059 194.057C72.3541 194.001 72.563 193.889 72.7326 193.72C72.9069 193.55 73.0271 193.345 73.0933 193.103C73.1641 192.86 73.1694 192.605 73.1094 192.338C73.0493 192.072 72.9357 191.846 72.7686 191.662C72.606 191.476 72.4097 191.344 72.1795 191.266C71.9539 191.186 71.7171 191.175 71.4689 191.231C71.2208 191.287 71.0096 191.399 70.8353 191.569C70.6657 191.738 70.545 191.941 70.4731 192.179C70.4013 192.418 70.3954 192.67 70.4555 192.937C70.5156 193.203 70.6297 193.431 70.7979 193.62C70.966 193.809 71.1629 193.943 71.3885 194.023C71.6186 194.101 71.8578 194.113 72.1059 194.057ZM75.909 193.656L73.6355 190.286L74.2145 190.155L76.158 193.122L75.9718 193.164L76.4617 189.649L77.0476 189.517L76.4259 193.539L75.909 193.656Z" fill="black" fill-opacity="0.49"/>
<path d="M97.3515 188.823L96.194 183.687L97.8828 183.307C98.3929 183.192 98.8602 183.197 99.2847 183.324C99.7081 183.446 100.067 183.676 100.361 184.016C100.653 184.35 100.859 184.78 100.977 185.304C101.094 185.823 101.092 186.299 100.973 186.732C100.853 187.164 100.628 187.529 100.299 187.825C99.9701 188.121 99.5504 188.327 99.0403 188.442L97.3515 188.823ZM97.7864 188.181L98.9238 187.925C99.319 187.836 99.6427 187.676 99.8949 187.445C100.146 187.21 100.315 186.921 100.402 186.578C100.493 186.234 100.492 185.852 100.398 185.434C100.304 185.016 100.142 184.673 99.9126 184.406C99.6823 184.135 99.4038 183.949 99.077 183.849C98.7492 183.744 98.3899 183.736 97.9993 183.824L96.862 184.08L97.7864 188.181ZM104.092 187.39C103.748 187.468 103.416 187.456 103.099 187.353C102.785 187.245 102.514 187.063 102.287 186.805C102.06 186.547 101.904 186.232 101.821 185.86C101.737 185.487 101.741 185.141 101.833 184.821C101.924 184.496 102.084 184.221 102.313 183.996C102.547 183.769 102.832 183.618 103.167 183.542C103.434 183.482 103.682 183.48 103.911 183.534C104.144 183.583 104.354 183.676 104.539 183.813C104.723 183.945 104.878 184.108 105.004 184.302C105.129 184.491 105.216 184.696 105.266 184.916C105.276 184.962 105.286 185.016 105.295 185.077C105.303 185.133 105.309 185.192 105.313 185.254L102.19 185.957L102.081 185.475L104.908 184.838L104.706 185.101C104.691 184.838 104.61 184.62 104.464 184.445C104.322 184.265 104.146 184.138 103.937 184.064C103.726 183.986 103.506 183.973 103.276 184.025C103.046 184.077 102.846 184.185 102.675 184.349C102.509 184.512 102.395 184.714 102.334 184.954C102.271 185.191 102.284 185.453 102.374 185.742C102.417 186.041 102.521 186.288 102.685 186.483C102.854 186.672 103.052 186.804 103.281 186.878C103.515 186.95 103.749 186.96 103.984 186.908C104.255 186.847 104.468 186.731 104.622 186.561C104.777 186.391 104.89 186.196 104.962 185.977L105.456 186.112C105.419 186.294 105.342 186.474 105.222 186.65C105.101 186.822 104.945 186.976 104.754 187.111C104.565 187.24 104.345 187.333 104.092 187.39ZM108.34 186.433C107.977 186.515 107.638 186.502 107.324 186.394C107.01 186.286 106.743 186.105 106.521 185.85C106.299 185.591 106.146 185.278 106.063 184.911C105.98 184.543 105.984 184.197 106.075 183.872C106.166 183.547 106.331 183.271 106.569 183.044C106.807 182.811 107.107 182.654 107.47 182.573C107.7 182.521 107.925 182.513 108.146 182.551C108.367 182.588 108.571 182.66 108.76 182.767C108.947 182.87 109.1 183.004 109.22 183.17L108.806 183.517C108.669 183.34 108.493 183.211 108.276 183.13C108.06 183.048 107.83 183.035 107.587 183.09C107.343 183.144 107.136 183.256 106.967 183.425C106.801 183.588 106.685 183.79 106.618 184.032C106.556 184.268 106.555 184.522 106.616 184.793C106.676 185.06 106.786 185.289 106.945 185.48C107.107 185.665 107.299 185.798 107.52 185.879C107.745 185.958 107.98 185.971 108.224 185.916C108.467 185.861 108.667 185.751 108.823 185.585C108.983 185.419 109.088 185.221 109.138 184.992L109.664 185.142C109.627 185.339 109.546 185.526 109.422 185.704C109.297 185.881 109.144 186.034 108.96 186.163C108.777 186.291 108.57 186.381 108.34 186.433Z" fill="black" fill-opacity="0.49"/>
<path d="M130.416 181.37L130.292 180.818L130.567 180.756C130.825 180.698 131.01 180.577 131.123 180.392C131.235 180.203 131.261 179.975 131.2 179.708L130.361 175.986L130.913 175.862L131.752 179.584C131.817 179.873 131.816 180.137 131.749 180.374C131.686 180.61 131.565 180.809 131.384 180.971C131.203 181.132 130.972 181.245 130.692 181.308L130.416 181.37ZM134.294 180.583C134.059 180.636 133.84 180.639 133.637 180.593C133.432 180.543 133.26 180.451 133.119 180.319C132.978 180.186 132.884 180.019 132.839 179.817C132.795 179.624 132.797 179.44 132.845 179.265C132.891 179.086 132.989 178.921 133.139 178.771C133.289 178.622 133.494 178.493 133.755 178.386L135.148 177.819L135.254 178.287L133.98 178.806C133.724 178.912 133.55 179.041 133.459 179.192C133.372 179.342 133.347 179.502 133.386 179.672C133.423 179.837 133.519 179.963 133.673 180.049C133.833 180.134 134.016 180.153 134.222 180.106C134.475 180.049 134.684 179.947 134.848 179.799C135.012 179.646 135.126 179.466 135.19 179.258C135.254 179.05 135.261 178.834 135.21 178.609L134.999 177.671C134.949 177.451 134.829 177.29 134.637 177.188C134.445 177.086 134.22 177.065 133.963 177.123C133.738 177.173 133.553 177.275 133.409 177.429C133.264 177.577 133.17 177.75 133.128 177.948L132.601 177.799C132.635 177.627 132.711 177.46 132.829 177.298C132.952 177.136 133.101 176.996 133.278 176.879C133.453 176.757 133.644 176.673 133.851 176.626C134.122 176.565 134.373 176.564 134.604 176.623C134.839 176.681 135.035 176.792 135.192 176.954C135.353 177.111 135.461 177.311 135.516 177.555L136.088 180.091L135.571 180.208L135.405 179.47L135.498 179.529C135.464 179.681 135.392 179.831 135.28 179.977C135.171 180.117 135.033 180.242 134.865 180.353C134.7 180.457 134.51 180.534 134.294 180.583ZM137.151 179.852L136.318 176.157L136.835 176.04L136.997 176.757L136.874 176.756C136.912 176.497 137.019 176.274 137.194 176.09C137.375 175.904 137.603 175.781 137.878 175.718C138.14 175.659 138.388 175.666 138.622 175.739C138.86 175.811 139.063 175.939 139.23 176.124C139.401 176.302 139.516 176.523 139.575 176.785L140.115 179.184L139.598 179.3L139.103 177.101C139.052 176.876 138.968 176.695 138.85 176.557C138.736 176.418 138.597 176.324 138.431 176.275C138.269 176.22 138.094 176.213 137.905 176.256C137.717 176.298 137.559 176.38 137.432 176.5C137.303 176.616 137.216 176.764 137.169 176.943C137.122 177.118 137.123 177.316 137.173 177.536L137.668 179.735L137.151 179.852Z" fill="black" fill-opacity="0.49"/>
<path d="M163.492 173.915L162.334 168.779L165.505 168.064L165.622 168.581L163.002 169.172L163.405 170.957L165.817 170.413L165.934 170.93L163.521 171.474L164.043 173.79L163.492 173.915ZM168.987 172.763C168.643 172.84 168.312 172.828 167.994 172.726C167.68 172.618 167.409 172.435 167.182 172.177C166.955 171.92 166.8 171.604 166.716 171.232C166.632 170.86 166.636 170.514 166.728 170.194C166.819 169.869 166.979 169.594 167.208 169.368C167.442 169.142 167.727 168.991 168.062 168.915C168.329 168.855 168.577 168.852 168.806 168.907C169.039 168.956 169.249 169.048 169.434 169.185C169.618 169.318 169.773 169.481 169.899 169.674C170.024 169.864 170.111 170.068 170.161 170.289C170.171 170.335 170.181 170.388 170.19 170.449C170.198 170.505 170.204 170.564 170.208 170.626L167.085 171.33L166.977 170.847L169.803 170.21L169.601 170.473C169.586 170.211 169.505 169.993 169.359 169.818C169.217 169.637 169.041 169.51 168.832 169.437C168.621 169.359 168.401 169.346 168.171 169.398C167.941 169.449 167.741 169.557 167.57 169.721C167.404 169.884 167.29 170.086 167.229 170.327C167.166 170.563 167.179 170.826 167.269 171.115C167.312 171.414 167.416 171.661 167.581 171.856C167.749 172.045 167.947 172.176 168.176 172.25C168.41 172.323 168.644 172.333 168.879 172.28C169.15 172.219 169.363 172.104 169.518 171.933C169.672 171.763 169.785 171.569 169.857 171.35L170.351 171.485C170.315 171.667 170.237 171.846 170.117 172.023C169.997 172.195 169.84 172.348 169.649 172.483C169.461 172.613 169.24 172.706 168.987 172.763ZM173.414 171.765C173.097 171.836 172.794 171.83 172.505 171.745C172.219 171.655 171.981 171.492 171.793 171.254L171.858 171.16L172.045 171.987L171.528 172.103L170.352 166.885L170.869 166.769L171.398 169.119L171.283 168.993C171.377 168.726 171.531 168.495 171.743 168.303C171.96 168.109 172.227 167.976 172.544 167.905C172.894 167.826 173.223 167.841 173.532 167.95C173.845 168.053 174.113 168.232 174.334 168.486C174.56 168.74 174.715 169.052 174.799 169.425C174.882 169.792 174.876 170.141 174.782 170.472C174.691 170.796 174.526 171.075 174.289 171.307C174.055 171.534 173.764 171.686 173.414 171.765ZM173.27 171.254C173.518 171.198 173.725 171.086 173.89 170.919C174.06 170.75 174.176 170.548 174.238 170.312C174.305 170.07 174.308 169.816 174.248 169.549C174.187 169.278 174.075 169.05 173.912 168.864C173.754 168.678 173.563 168.544 173.337 168.465C173.116 168.384 172.881 168.372 172.633 168.428C172.385 168.484 172.174 168.597 172 168.766C171.83 168.935 171.71 169.141 171.639 169.384C171.572 169.621 171.568 169.873 171.628 170.139C171.688 170.406 171.8 170.634 171.964 170.824C172.131 171.009 172.327 171.141 172.553 171.22C172.783 171.299 173.022 171.31 173.27 171.254Z" fill="#1F1F1F"/>
<path d="M193.522 167.146L192.365 162.01L192.847 161.902L195.408 164.265L195.139 164.326L196.432 161.094L196.914 160.985L198.072 166.12L197.52 166.245L196.531 161.854L196.725 161.882L195.454 165.044L195.426 165.051L192.927 162.738L193.084 162.63L194.074 167.021L193.522 167.146ZM200.296 165.706C200.062 165.759 199.843 165.762 199.639 165.716C199.435 165.666 199.262 165.574 199.121 165.442C198.98 165.31 198.887 165.142 198.841 164.94C198.798 164.747 198.8 164.563 198.847 164.388C198.894 164.209 198.992 164.044 199.142 163.894C199.291 163.745 199.497 163.616 199.757 163.509L201.151 162.942L201.256 163.411L199.982 163.929C199.726 164.035 199.552 164.164 199.461 164.315C199.374 164.465 199.35 164.625 199.388 164.795C199.425 164.96 199.521 165.086 199.676 165.172C199.835 165.257 200.018 165.276 200.225 165.229C200.477 165.172 200.686 165.07 200.851 164.922C201.014 164.769 201.128 164.589 201.192 164.381C201.257 164.173 201.263 163.957 201.213 163.732L201.001 162.794C200.952 162.574 200.831 162.413 200.639 162.311C200.447 162.209 200.222 162.188 199.965 162.246C199.74 162.296 199.555 162.398 199.411 162.552C199.266 162.7 199.172 162.873 199.13 163.071L198.604 162.922C198.637 162.75 198.713 162.583 198.831 162.422C198.954 162.259 199.103 162.119 199.28 162.002C199.455 161.88 199.646 161.796 199.853 161.749C200.124 161.688 200.375 161.687 200.606 161.746C200.841 161.804 201.037 161.915 201.195 162.077C201.356 162.234 201.463 162.434 201.518 162.678L202.09 165.215L201.573 165.331L201.407 164.593L201.5 164.652C201.467 164.805 201.394 164.954 201.282 165.1C201.174 165.24 201.035 165.365 200.867 165.476C200.702 165.58 200.512 165.657 200.296 165.706ZM203.154 164.975L202.321 161.28L202.838 161.164L202.974 161.77L202.885 161.696C202.933 161.502 203.033 161.334 203.185 161.194C203.341 161.052 203.546 160.953 203.799 160.896L204.033 160.843L204.15 161.36L203.826 161.433C203.559 161.494 203.364 161.624 203.241 161.826C203.117 162.028 203.089 162.28 203.158 162.584L203.67 164.858L203.154 164.975Z" fill="black" fill-opacity="0.49"/>
<path d="M225.908 159.846L226.625 154.288L227.218 154.154L230.25 158.867L229.671 158.998L228.947 157.843L226.652 158.36L226.487 159.715L225.908 159.846ZM226.715 157.803L228.638 157.369L226.932 154.653L227.097 154.616L226.715 157.803ZM231.17 160.109L230.027 155.035L230.544 154.919L230.73 155.746L230.615 155.62C230.709 155.352 230.862 155.122 231.075 154.929C231.292 154.735 231.559 154.603 231.876 154.531C232.225 154.453 232.555 154.468 232.864 154.577C233.177 154.68 233.444 154.859 233.666 155.113C233.892 155.366 234.047 155.679 234.131 156.051C234.214 156.419 234.208 156.768 234.113 157.098C234.022 157.423 233.858 157.701 233.621 157.934C233.387 158.16 233.095 158.313 232.746 158.392C232.429 158.463 232.126 158.457 231.836 158.372C231.55 158.282 231.313 158.118 231.124 157.881L231.19 157.786L231.687 159.992L231.17 160.109ZM232.602 157.881C232.85 157.825 233.057 157.713 233.222 157.546C233.391 157.377 233.508 157.174 233.57 156.938C233.636 156.696 233.639 156.442 233.579 156.176C233.518 155.904 233.406 155.676 233.244 155.491C233.086 155.304 232.894 155.171 232.669 155.092C232.448 155.011 232.213 154.999 231.965 155.055C231.717 155.111 231.506 155.223 231.331 155.393C231.162 155.562 231.041 155.767 230.971 156.01C230.903 156.248 230.9 156.499 230.96 156.766C231.02 157.033 231.132 157.261 231.295 157.451C231.463 157.635 231.659 157.767 231.884 157.847C232.115 157.925 232.354 157.937 232.602 157.881ZM235.457 157.694L234.624 153.999L235.141 153.882L235.278 154.489L235.189 154.415C235.237 154.221 235.337 154.053 235.489 153.913C235.645 153.771 235.85 153.672 236.102 153.615L236.337 153.562L236.453 154.079L236.129 154.152C235.863 154.212 235.668 154.343 235.544 154.545C235.421 154.747 235.393 154.999 235.461 155.302L235.974 157.577L235.457 157.694Z" fill="black" fill-opacity="0.49"/>
</g>
<defs>
<filter id="filter0_d_221_137" x="0.664324" y="0.0336866" width="292.071" height="252.641" filterUnits="userSpaceOnUse" color-interpolation-filters="sRGB">
<feFlood flood-opacity="0" result="BackgroundImageFix"/>
<feColorMatrix in="SourceAlpha" type="matrix" values="0 0 0 0 0 0 0 0 0 0 0 0 0 0 0 0 0 0 127 0" result="hardAlpha"/>
<feOffset dx="9.78383" dy="8.15319"/>
<feGaussianBlur stdDeviation="13.0451"/>
<feComposite in2="hardAlpha" operator="out"/>
<feColorMatrix type="matrix" values="0 0 0 0 0 0 0 0 0 0 0 0 0 0 0 0 0 0 0.08 0"/>
<feBlend mode="normal" in2="BackgroundImageFix" result="effect1_dropShadow_221_137"/>
<feBlend mode="normal" in="SourceGraphic" in2="effect1_dropShadow_221_137" result="shape"/>
</filter>
<linearGradient id="paint0_linear_221_137" x1="118.618" y1="27.3718" x2="149.787" y2="165.608" gradientUnits="userSpaceOnUse">
<stop offset="0.0807121" stop-color="#ABD511"/>
<stop offset="0.927405" stop-color="white" stop-opacity="0"/>
</linearGradient>
<linearGradient id="paint1_linear_221_137" x1="220.765" y1="836.398" x2="297.69" y2="60.492" gradientUnits="userSpaceOnUse">
<stop offset="0.735537" stop-color="#D7FC4E"/>
<stop offset="1" stop-color="white" stop-opacity="0"/>
</linearGradient>
</defs>
</svg>
