<svg width="378" height="336" viewBox="0 0 378 336" fill="none" xmlns="http://www.w3.org/2000/svg">
<rect x="128.858" y="31.8231" width="220.682" height="219.01" rx="16.7183" transform="rotate(18.957 128.858 31.8231)" fill="#CDEE15" fill-opacity="0.24"/>
<g filter="url(#filter0_d_221_158)">
<rect x="64.3589" y="31.7638" width="213.159" height="72.7247" rx="15.8824" transform="rotate(18.957 64.3589 31.7638)" fill="white"/>
</g>
<path d="M141.95 85.9617L145.501 81.4142L147.493 82.0985L140.985 89.6605L140.25 83.3093L135.755 87.8641L135.279 77.903L137.271 78.5873L137.302 84.365L141.529 79.5857L141.95 85.9617ZM147.043 91.357C146.45 91.1534 145.973 90.8569 145.612 90.4677C145.251 90.0784 145.02 89.6322 144.918 89.129C144.828 88.6206 144.882 88.0779 145.08 87.5008C145.281 86.9157 145.572 86.4544 145.953 86.1169C146.345 85.7742 146.801 85.5642 147.323 85.487C147.847 85.4019 148.41 85.4626 149.01 85.6689C149.611 85.8753 150.083 86.1611 150.426 86.5264C150.78 86.8865 150.995 87.3141 151.073 87.8091C151.153 88.2963 151.092 88.8324 150.891 89.4174C150.867 89.4885 150.837 89.5623 150.802 89.6386C150.775 89.7177 150.749 89.7796 150.725 89.8243L145.839 88.1461L146.165 87.1974L149.711 88.4153L149.109 88.8182C149.156 88.7817 149.206 88.7279 149.257 88.657C149.318 88.5809 149.358 88.5152 149.377 88.4599C149.47 88.1911 149.497 87.9441 149.46 87.7191C149.43 87.4968 149.343 87.299 149.199 87.1259C149.056 86.9528 148.861 86.8241 148.616 86.7399C148.316 86.6367 148.039 86.617 147.788 86.6808C147.547 86.7394 147.326 86.8802 147.126 87.103C146.936 87.3207 146.772 87.618 146.634 87.9947C146.509 88.3584 146.454 88.6844 146.47 88.9726C146.494 89.2636 146.59 89.513 146.757 89.7207C146.924 89.9284 147.158 90.0839 147.458 90.1871C147.798 90.3039 148.109 90.3397 148.389 90.2947C148.681 90.2445 148.95 90.1161 149.198 89.9095L150.395 90.7848C149.934 91.201 149.422 91.458 148.858 91.556C148.304 91.6487 147.699 91.5824 147.043 91.357ZM155.772 83.8815L152.595 93.1313L151.053 92.6017L154.23 83.352L155.772 83.8815ZM158.014 91.9435C157.808 92.5443 157.509 93.0161 157.117 93.3588C156.725 93.7016 156.29 93.9144 155.81 93.9972C155.339 94.0828 154.874 94.0469 154.416 93.8894C153.965 93.7346 153.601 93.4814 153.324 93.13C153.055 92.7812 152.891 92.3581 152.832 91.8606C152.773 91.3631 152.844 90.8218 153.045 90.2368C153.249 89.6438 153.526 89.1732 153.875 88.8248C154.227 88.4684 154.617 88.2354 155.043 88.1256C155.478 88.0185 155.92 88.0424 156.371 88.1972C156.829 88.3547 157.218 88.612 157.538 88.9691C157.865 89.329 158.078 89.7645 158.176 90.2756C158.277 90.7788 158.223 91.3347 158.014 91.9435ZM156.425 91.3977C156.536 91.0735 156.566 90.7698 156.513 90.4864C156.46 90.2031 156.34 89.9588 156.154 89.7536C155.977 89.551 155.753 89.4036 155.484 89.3113C155.255 89.2325 155.008 89.2184 154.743 89.2688C154.489 89.3141 154.25 89.4309 154.026 89.6192C153.811 89.8102 153.646 90.0717 153.531 90.4038C153.417 90.7358 153.387 91.0435 153.44 91.3268C153.501 91.6129 153.616 91.8558 153.786 92.0556C153.967 92.2503 154.172 92.3869 154.401 92.4657C154.67 92.558 154.937 92.579 155.201 92.5285C155.474 92.4808 155.718 92.3614 155.934 92.1704C156.15 91.9794 156.314 91.7218 156.425 91.3977ZM164.771 88.0333L166.503 88.628L163.651 96.9291L161.92 96.3344L164.771 88.0333ZM164.742 97.3038L163.011 96.7091L163.54 95.1675L165.213 95.7418C165.576 95.8667 165.936 95.9374 166.293 95.9539C166.653 95.9625 166.991 95.9021 167.31 95.7728C167.628 95.6436 167.91 95.4399 168.156 95.162C168.412 94.8788 168.619 94.508 168.777 94.0494C168.934 93.5909 168.998 93.1751 168.967 92.8021C168.946 92.4239 168.85 92.086 168.678 91.7883C168.507 91.4907 168.275 91.2388 167.984 91.0326C167.695 90.8184 167.368 90.6489 167.005 90.524L165.333 89.9497L165.862 88.408L167.594 89.0028C168.463 89.3015 169.164 89.7321 169.695 90.2948C170.235 90.8601 170.579 91.5175 170.728 92.267C170.88 93.0085 170.811 93.8023 170.52 94.6482C170.23 95.4941 169.795 96.1669 169.217 96.6665C168.641 97.1583 167.967 97.4614 167.194 97.576C166.429 97.6933 165.612 97.6025 164.742 97.3038ZM172.799 100.204C172.206 100 171.729 99.7036 171.368 99.3144C171.006 98.9251 170.775 98.4789 170.674 97.9757C170.583 97.4674 170.637 96.9246 170.836 96.3475C171.036 95.7625 171.328 95.3012 171.709 94.9636C172.1 94.6209 172.557 94.4109 173.078 94.3337C173.603 94.2486 174.165 94.3093 174.766 94.5157C175.367 94.722 175.839 95.0079 176.182 95.3732C176.535 95.7333 176.751 96.1608 176.828 96.6559C176.908 97.143 176.848 97.6791 176.647 98.2641C176.623 98.3353 176.593 98.409 176.558 98.4854C176.531 98.5644 176.505 98.6263 176.481 98.671L171.595 96.9928L171.921 96.0441L175.467 97.262L174.864 97.665C174.912 97.6284 174.961 97.5747 175.012 97.5038C175.074 97.4277 175.114 97.3619 175.133 97.3066C175.225 97.0378 175.253 96.7909 175.215 96.5658C175.185 96.3435 175.099 96.1458 174.955 95.9726C174.811 95.7995 174.617 95.6708 174.372 95.5867C174.071 95.4835 173.795 95.4638 173.543 95.5276C173.302 95.5862 173.082 95.7269 172.881 95.9498C172.692 96.1675 172.528 96.4647 172.389 96.8414C172.264 97.2051 172.21 97.5311 172.226 97.8194C172.25 98.1104 172.345 98.3597 172.512 98.5675C172.68 98.7752 172.914 98.9306 173.214 99.0338C173.554 99.1506 173.864 99.1865 174.145 99.1414C174.436 99.0912 174.706 98.9628 174.953 98.7562L176.151 99.6316C175.69 100.048 175.177 100.305 174.613 100.403C174.06 100.495 173.455 100.429 172.799 100.204ZM177.761 95.6772L179.41 96.2434L179.622 99.9885L182.09 97.1639L183.738 97.7301L178.681 102.728L177.761 95.6772ZM184.959 104.38C184.366 104.177 183.889 103.88 183.527 103.491C183.166 103.102 182.935 102.656 182.834 102.152C182.743 101.644 182.797 101.101 182.995 100.524C183.196 99.9392 183.487 99.4779 183.868 99.1404C184.26 98.7977 184.717 98.5877 185.238 98.5105C185.762 98.4254 186.325 98.486 186.926 98.6924C187.527 98.8988 187.998 99.1846 188.341 99.5499C188.695 99.91 188.911 100.338 188.988 100.833C189.068 101.32 189.008 101.856 188.807 102.441C188.782 102.512 188.753 102.586 188.718 102.662C188.69 102.741 188.665 102.803 188.64 102.848L183.755 101.17L184.081 100.221L187.626 101.439L187.024 101.842C187.072 101.805 187.121 101.751 187.172 101.68C187.234 101.604 187.274 101.539 187.293 101.483C187.385 101.215 187.413 100.968 187.375 100.743C187.345 100.52 187.258 100.323 187.115 100.149C186.971 99.9762 186.776 99.8476 186.531 99.7634C186.231 99.6602 185.955 99.6405 185.703 99.7043C185.462 99.7629 185.241 99.9036 185.041 100.127C184.851 100.344 184.687 100.641 184.549 101.018C184.424 101.382 184.37 101.708 184.386 101.996C184.409 102.287 184.505 102.536 184.672 102.744C184.84 102.952 185.073 103.107 185.374 103.211C185.714 103.327 186.024 103.363 186.305 103.318C186.596 103.268 186.865 103.14 187.113 102.933L188.311 103.808C187.849 104.224 187.337 104.481 186.773 104.579C186.22 104.672 185.615 104.606 184.959 104.38ZM192.181 96.3877L193.723 96.9172L190.546 106.167L189.004 105.637L192.181 96.3877ZM192.63 103.834C192.826 103.265 193.128 102.811 193.535 102.474C193.95 102.139 194.424 101.931 194.956 101.849C195.496 101.769 196.055 101.828 196.632 102.026C197.209 102.225 197.682 102.52 198.051 102.912C198.429 103.306 198.674 103.762 198.788 104.279C198.911 104.798 198.874 105.342 198.678 105.911C198.486 106.473 198.18 106.924 197.762 107.267C197.354 107.604 196.881 107.813 196.341 107.892C195.809 107.975 195.254 107.917 194.677 107.719C194.1 107.52 193.623 107.224 193.246 106.829C192.876 106.437 192.631 105.982 192.509 105.462C192.397 104.938 192.438 104.395 192.63 103.834ZM194.196 104.371C194.09 104.68 194.059 104.974 194.105 105.255C194.16 105.53 194.276 105.773 194.451 105.984C194.629 106.186 194.852 106.334 195.121 106.426C195.39 106.518 195.656 106.539 195.921 106.489C196.189 106.43 196.425 106.308 196.63 106.123C196.846 105.932 197.007 105.682 197.113 105.374C197.219 105.065 197.245 104.769 197.193 104.486C197.147 104.205 197.036 103.964 196.858 103.761C196.68 103.559 196.457 103.411 196.188 103.319C195.919 103.227 195.652 103.206 195.388 103.256C195.123 103.307 194.882 103.427 194.667 103.618C194.459 103.812 194.302 104.063 194.196 104.371ZM199.504 112.161L197.962 111.631L200.732 103.567L202.274 104.097L199.504 112.161ZM205.819 108.364C205.608 108.981 205.304 109.464 204.91 109.815C204.516 110.166 204.079 110.382 203.6 110.465C203.128 110.551 202.663 110.515 202.205 110.357C201.738 110.197 201.372 109.939 201.105 109.582C200.847 109.228 200.698 108.801 200.657 108.301C200.625 107.804 200.709 107.263 200.91 106.678C201.114 106.085 201.38 105.606 201.708 105.242C202.047 104.872 202.427 104.627 202.849 104.507C203.278 104.389 203.726 104.41 204.192 104.57C204.651 104.728 205.04 104.985 205.359 105.342C205.686 105.702 205.898 106.142 205.994 106.661C206.092 107.172 206.034 107.739 205.819 108.364ZM204.23 107.818C204.342 107.494 204.369 107.194 204.314 106.919C204.258 106.643 204.136 106.407 203.948 106.21C203.767 106.015 203.542 105.872 203.273 105.779C203.044 105.701 202.798 105.682 202.536 105.725C202.285 105.762 202.049 105.871 201.828 106.052C201.614 106.235 201.451 106.492 201.337 106.824C201.223 107.156 201.194 107.46 201.249 107.736C201.313 108.014 201.431 108.249 201.604 108.441C201.787 108.627 201.993 108.76 202.223 108.839C202.491 108.931 202.757 108.956 203.019 108.913C203.289 108.874 203.53 108.762 203.744 108.579C203.957 108.396 204.119 108.142 204.23 107.818ZM215.289 110.768L214.092 114.255L212.55 113.725L213.69 110.405C213.818 110.033 213.85 109.735 213.786 109.509C213.724 109.276 213.552 109.111 213.267 109.013C213.077 108.948 212.896 108.934 212.724 108.972C212.555 109.003 212.4 109.091 212.262 109.238C212.126 109.377 212.017 109.565 211.935 109.802L210.795 113.122L209.265 112.597L210.406 109.276C210.533 108.905 210.565 108.606 210.501 108.381C210.44 108.148 210.267 107.982 209.982 107.885C209.792 107.82 209.611 107.806 209.439 107.844C209.27 107.874 209.116 107.963 208.977 108.11C208.841 108.248 208.732 108.436 208.65 108.674L207.51 111.994L206.028 111.485L207.901 106.03L209.384 106.539L209.107 107.345C209.368 107.099 209.656 106.942 209.971 106.874C210.287 106.805 210.626 106.833 210.99 106.958C211.393 107.097 211.698 107.29 211.904 107.537C212.111 107.785 212.221 108.084 212.233 108.433C212.537 108.192 212.858 108.042 213.197 107.981C213.544 107.924 213.903 107.959 214.275 108.086C214.678 108.225 214.977 108.421 215.173 108.674C215.372 108.919 215.476 109.22 215.486 109.577C215.507 109.928 215.441 110.326 215.289 110.768ZM218.137 115.777C217.545 115.573 217.067 115.277 216.706 114.888C216.345 114.498 216.114 114.052 216.013 113.549C215.922 113.041 215.976 112.498 216.174 111.921C216.375 111.336 216.666 110.874 217.047 110.537C217.439 110.194 217.896 109.984 218.417 109.907C218.941 109.822 219.504 109.883 220.105 110.089C220.705 110.295 221.177 110.581 221.52 110.946C221.874 111.307 222.089 111.734 222.167 112.229C222.247 112.716 222.187 113.252 221.986 113.837C221.961 113.909 221.931 113.982 221.896 114.059C221.869 114.138 221.844 114.2 221.819 114.244L216.934 112.566L217.259 111.617L220.805 112.835L220.203 113.238C220.251 113.202 220.3 113.148 220.351 113.077C220.412 113.001 220.453 112.935 220.472 112.88C220.564 112.611 220.591 112.364 220.554 112.139C220.524 111.917 220.437 111.719 220.293 111.546C220.15 111.373 219.955 111.244 219.71 111.16C219.41 111.057 219.134 111.037 218.882 111.101C218.641 111.159 218.42 111.3 218.22 111.523C218.03 111.741 217.866 112.038 217.728 112.415C217.603 112.778 217.549 113.104 217.564 113.393C217.588 113.684 217.684 113.933 217.851 114.141C218.018 114.348 218.252 114.504 218.553 114.607C218.893 114.724 219.203 114.76 219.483 114.715C219.775 114.664 220.044 114.536 220.292 114.33L221.489 115.205C221.028 115.621 220.516 115.878 219.952 115.976C219.398 116.069 218.794 116.002 218.137 115.777ZM226.845 114.923C226.97 114.56 226.994 114.258 226.917 114.02C226.84 113.781 226.643 113.608 226.327 113.499C226.113 113.426 225.907 113.408 225.709 113.446C225.513 113.476 225.343 113.559 225.199 113.695C225.055 113.831 224.944 114.014 224.865 114.243L223.724 117.563L222.183 117.034L224.056 111.579L225.598 112.108L225.313 112.939C225.585 112.687 225.882 112.529 226.206 112.463C226.539 112.392 226.9 112.423 227.287 112.556C227.935 112.779 228.354 113.13 228.542 113.61C228.734 114.083 228.717 114.647 228.491 115.303L227.294 118.79L225.705 118.244L226.845 114.923ZM229.981 113.614L233.349 114.771L232.905 116.063L229.537 114.907L229.981 113.614ZM231.57 112.038L233.052 112.548L230.526 119.9L229.044 119.391L231.57 112.038Z" fill="black"/>
<rect x="124.034" y="97.338" width="54.3346" height="20.062" rx="5.06068" transform="rotate(18.957 124.034 97.338)" fill="#F2F2F2"/>
<path d="M131.478 106.778L132.285 107.055L130.004 113.695L129.197 113.418L131.478 106.778ZM131.663 107.69L131.924 106.931L133.281 107.397C133.711 107.545 134.065 107.758 134.344 108.038C134.631 108.313 134.822 108.633 134.916 108.998C135.016 109.365 134.995 109.753 134.854 110.165C134.715 110.569 134.492 110.889 134.186 111.123C133.888 111.353 133.539 111.491 133.141 111.538C132.752 111.581 132.342 111.529 131.912 111.381L130.555 110.915L130.816 110.156L132.173 110.622C132.603 110.77 132.987 110.785 133.324 110.668C133.668 110.552 133.909 110.292 134.048 109.888C134.189 109.477 134.158 109.123 133.956 108.827C133.762 108.527 133.45 108.303 133.02 108.156L131.663 107.69ZM135.716 115.764C135.311 115.625 134.983 115.406 134.732 115.108C134.49 114.805 134.339 114.453 134.279 114.05C134.225 113.65 134.276 113.226 134.43 112.776C134.586 112.321 134.812 111.953 135.106 111.672C135.407 111.394 135.751 111.215 136.139 111.136C136.533 111.059 136.945 111.095 137.375 111.243C137.805 111.39 138.14 111.608 138.381 111.896C138.63 112.179 138.779 112.517 138.829 112.909C138.878 113.3 138.823 113.727 138.665 114.189C138.649 114.233 138.63 114.279 138.606 114.328C138.591 114.372 138.581 114.4 138.577 114.413L134.849 113.132L135.07 112.487L138.201 113.563L137.747 113.895C137.777 113.87 137.813 113.829 137.853 113.772C137.896 113.709 137.925 113.655 137.94 113.611C138.029 113.352 138.053 113.109 138.01 112.882C137.974 112.658 137.883 112.46 137.737 112.29C137.59 112.119 137.394 111.991 137.147 111.907C136.856 111.807 136.584 111.784 136.332 111.839C136.089 111.89 135.87 112.012 135.675 112.207C135.49 112.398 135.336 112.66 135.215 112.993C135.097 113.335 135.051 113.644 135.076 113.921C135.101 114.198 135.196 114.436 135.362 114.634C135.527 114.833 135.758 114.983 136.055 115.085C136.353 115.187 136.637 115.214 136.908 115.166C137.181 115.111 137.443 114.978 137.692 114.767L138.175 115.367C137.821 115.656 137.438 115.835 137.025 115.906C136.62 115.972 136.184 115.924 135.716 115.764ZM141.2 112.663L139.701 117.027L138.942 116.766L140.441 112.402L141.2 112.663ZM142.232 113.95C142.157 113.84 142.084 113.754 142.013 113.695C141.943 113.628 141.845 113.574 141.719 113.53C141.529 113.465 141.364 113.461 141.224 113.519C141.084 113.577 140.964 113.681 140.863 113.83C140.768 113.981 140.685 114.162 140.614 114.37L140.272 114.253C140.392 113.905 140.557 113.619 140.769 113.395C140.988 113.166 141.224 113.006 141.474 112.916C141.724 112.825 141.951 112.814 142.153 112.884C142.311 112.938 142.449 113.01 142.567 113.1C142.693 113.186 142.792 113.308 142.865 113.468L142.232 113.95ZM142.834 116.607C142.877 116.77 142.936 116.928 143.01 117.081C143.085 117.234 143.183 117.371 143.305 117.49C143.435 117.605 143.589 117.694 143.766 117.754C143.981 117.828 144.165 117.838 144.317 117.785C144.479 117.727 144.589 117.613 144.647 117.442C144.699 117.29 144.692 117.146 144.626 117.01C144.568 116.87 144.475 116.739 144.347 116.618C144.221 116.49 144.084 116.365 143.935 116.243C143.771 116.102 143.609 115.947 143.447 115.778C143.295 115.606 143.18 115.414 143.104 115.204C143.036 114.99 143.045 114.756 143.132 114.503C143.221 114.244 143.362 114.052 143.553 113.927C143.751 113.804 143.971 113.738 144.215 113.73C144.464 113.724 144.706 113.761 144.94 113.841C145.174 113.921 145.379 114.034 145.556 114.18C145.738 114.327 145.887 114.492 146.002 114.672C146.116 114.853 146.19 115.041 146.222 115.236L145.481 115.416C145.417 115.211 145.312 115.022 145.166 114.852C145.026 114.684 144.842 114.56 144.614 114.482C144.456 114.428 144.308 114.416 144.17 114.446C144.032 114.477 143.939 114.565 143.889 114.71C143.849 114.824 143.859 114.94 143.917 115.059C143.975 115.178 144.062 115.297 144.177 115.414C144.292 115.531 144.415 115.648 144.545 115.763C144.763 115.951 144.956 116.141 145.124 116.333C145.293 116.518 145.41 116.714 145.474 116.92C145.544 117.128 145.534 117.361 145.445 117.621C145.315 118 145.067 118.269 144.702 118.426C144.343 118.586 143.939 118.588 143.49 118.434C143.199 118.334 142.954 118.193 142.755 118.012C142.557 117.824 142.405 117.619 142.297 117.398C142.195 117.18 142.133 116.971 142.109 116.772L142.834 116.607ZM146.391 116.885C146.543 116.442 146.775 116.084 147.089 115.809C147.408 115.537 147.773 115.362 148.182 115.283C148.59 115.205 149.007 115.238 149.43 115.383C149.861 115.531 150.21 115.761 150.477 116.072C150.752 116.385 150.928 116.746 151.007 117.155C151.092 117.566 151.058 117.993 150.906 118.436C150.756 118.872 150.521 119.23 150.199 119.508C149.885 119.782 149.524 119.959 149.115 120.037C148.713 120.118 148.296 120.085 147.866 119.937C147.443 119.792 147.094 119.562 146.819 119.249C146.545 118.935 146.366 118.573 146.281 118.162C146.204 117.747 146.241 117.321 146.391 116.885ZM147.159 117.149C147.055 117.452 147.026 117.743 147.072 118.02C147.124 118.3 147.237 118.547 147.411 118.763C147.593 118.974 147.826 119.128 148.111 119.226C148.395 119.323 148.671 119.344 148.938 119.287C149.214 119.226 149.455 119.1 149.662 118.91C149.875 118.722 150.034 118.476 150.138 118.172C150.242 117.868 150.268 117.577 150.216 117.297C150.172 117.013 150.059 116.766 149.877 116.555C149.701 116.346 149.471 116.193 149.186 116.095C148.901 115.997 148.623 115.976 148.349 116.03C148.082 116.087 147.841 116.213 147.626 116.408C147.419 116.598 147.263 116.845 147.159 117.149ZM154.91 119.281C155.034 118.92 155.049 118.621 154.954 118.384C154.858 118.146 154.659 117.975 154.356 117.871C154.134 117.795 153.922 117.775 153.718 117.811C153.524 117.843 153.35 117.925 153.199 118.057C153.054 118.191 152.945 118.365 152.871 118.58L151.958 121.237L151.199 120.976L152.698 116.612L153.457 116.873L153.223 117.556C153.459 117.34 153.707 117.206 153.966 117.153C154.23 117.103 154.505 117.127 154.79 117.224C155.251 117.383 155.562 117.663 155.721 118.064C155.889 118.461 155.882 118.922 155.702 119.447L154.757 122.198L153.998 121.937L154.91 119.281ZM156.988 121.458C156.932 121.623 156.921 121.778 156.955 121.924C156.996 122.073 157.075 122.202 157.193 122.313C157.319 122.42 157.473 122.505 157.657 122.568C157.891 122.649 158.116 122.673 158.332 122.641C158.554 122.611 158.748 122.53 158.915 122.396C159.089 122.258 159.216 122.075 159.294 121.847L159.25 122.469C159.155 122.747 158.99 122.948 158.756 123.073C158.529 123.2 158.276 123.265 157.999 123.269C157.729 123.275 157.473 123.237 157.233 123.154C156.967 123.063 156.736 122.924 156.539 122.736C156.35 122.544 156.222 122.319 156.155 122.063C156.087 121.806 156.104 121.53 156.207 121.232C156.352 120.809 156.617 120.521 157.001 120.37C157.394 120.215 157.859 120.23 158.396 120.415C158.713 120.523 158.962 120.651 159.145 120.799C159.336 120.942 159.478 121.083 159.572 121.222C159.668 121.354 159.729 121.456 159.754 121.528L159.6 121.974C159.431 121.746 159.24 121.56 159.028 121.417C158.818 121.267 158.58 121.146 158.315 121.055C158.068 120.97 157.855 120.932 157.675 120.941C157.501 120.952 157.357 121.002 157.242 121.089C157.127 121.177 157.042 121.3 156.988 121.458ZM157.565 119.408L157.387 118.721C157.593 118.657 157.859 118.614 158.185 118.592C158.517 118.572 158.885 118.631 159.29 118.77C159.632 118.887 159.91 119.043 160.127 119.238C160.351 119.428 160.499 119.645 160.571 119.889C160.649 120.135 160.639 120.4 160.542 120.685L159.466 123.816L158.707 123.555L159.747 120.529C159.799 120.377 159.816 120.245 159.798 120.132C159.782 120.014 159.737 119.91 159.661 119.82C159.592 119.733 159.502 119.656 159.391 119.59C159.279 119.523 159.157 119.467 159.024 119.421C158.809 119.347 158.604 119.305 158.41 119.295C158.222 119.287 158.056 119.297 157.912 119.325C157.767 119.354 157.652 119.381 157.565 119.408ZM163.293 116.857L164.052 117.118L161.51 124.518L160.751 124.257L163.293 116.857Z" fill="#797979"/>
<rect x="185.699" y="118.519" width="52.6627" height="20.062" rx="5.0155" transform="rotate(18.957 185.699 118.519)" fill="#FFEFF1"/>
<path d="M193.771 131.358C193.595 131.87 193.554 132.362 193.647 132.832C193.746 133.304 193.945 133.715 194.242 134.065C194.539 134.415 194.906 134.664 195.342 134.814C195.658 134.923 195.96 134.981 196.248 134.987C196.541 134.996 196.821 134.965 197.086 134.893C197.353 134.816 197.596 134.705 197.815 134.561L197.45 135.623C197.087 135.774 196.721 135.853 196.351 135.861C195.981 135.868 195.552 135.788 195.065 135.621C194.603 135.462 194.198 135.231 193.85 134.927C193.51 134.62 193.241 134.262 193.041 133.854C192.844 133.44 192.732 132.995 192.705 132.519C192.677 132.043 192.748 131.558 192.918 131.065C193.087 130.571 193.329 130.145 193.643 129.787C193.957 129.428 194.318 129.149 194.726 128.949C195.136 128.744 195.569 128.627 196.023 128.6C196.487 128.568 196.949 128.631 197.411 128.79C197.898 128.957 198.285 129.157 198.573 129.391C198.861 129.624 199.101 129.911 199.295 130.254L198.93 131.316C198.845 131.068 198.721 130.834 198.556 130.615C198.393 130.389 198.193 130.19 197.955 130.016C197.724 129.845 197.45 129.705 197.134 129.596C196.698 129.446 196.255 129.418 195.806 129.511C195.357 129.604 194.948 129.807 194.579 130.119C194.219 130.426 193.95 130.839 193.771 131.358ZM198.974 134.418C199.126 133.975 199.358 133.616 199.672 133.342C199.991 133.07 200.356 132.895 200.765 132.816C201.174 132.737 201.59 132.771 202.014 132.916C202.444 133.064 202.793 133.294 203.06 133.605C203.335 133.918 203.511 134.279 203.59 134.688C203.675 135.099 203.641 135.526 203.489 135.969C203.34 136.405 203.104 136.763 202.782 137.041C202.468 137.315 202.107 137.492 201.698 137.57C201.296 137.651 200.88 137.618 200.449 137.47C200.026 137.325 199.677 137.095 199.403 136.782C199.128 136.468 198.949 136.106 198.864 135.695C198.787 135.28 198.824 134.854 198.974 134.418ZM199.742 134.682C199.638 134.985 199.609 135.276 199.655 135.553C199.707 135.833 199.82 136.08 199.994 136.295C200.176 136.506 200.409 136.661 200.694 136.759C200.978 136.856 201.254 136.877 201.521 136.82C201.797 136.759 202.038 136.633 202.245 136.443C202.458 136.254 202.617 136.008 202.721 135.705C202.825 135.401 202.851 135.11 202.799 134.83C202.755 134.546 202.642 134.299 202.46 134.088C202.284 133.879 202.054 133.726 201.769 133.628C201.485 133.53 201.206 133.509 200.932 133.563C200.665 133.62 200.424 133.746 200.209 133.94C200.002 134.131 199.846 134.378 199.742 134.682ZM209.597 132.233L210.356 132.494L207.814 139.894L207.056 139.633L209.597 132.233ZM204.153 136.197C204.315 135.722 204.553 135.351 204.864 135.083C205.177 134.809 205.53 134.637 205.922 134.566C206.313 134.496 206.706 134.528 207.098 134.663C207.464 134.789 207.752 134.99 207.961 135.267C208.17 135.544 208.292 135.879 208.326 136.273C208.369 136.662 208.309 137.094 208.147 137.568C207.986 138.036 207.768 138.414 207.492 138.701C207.223 138.991 206.921 139.18 206.586 139.27C206.251 139.36 205.9 139.342 205.533 139.216C205.141 139.082 204.812 138.866 204.546 138.57C204.281 138.273 204.108 137.921 204.03 137.512C203.951 137.103 203.992 136.665 204.153 136.197ZM204.921 136.46C204.806 136.796 204.774 137.103 204.827 137.383C204.886 137.665 205.008 137.905 205.195 138.103C205.381 138.301 205.607 138.446 205.873 138.537C206.094 138.613 206.333 138.628 206.589 138.582C206.846 138.536 207.083 138.419 207.303 138.233C207.523 138.047 207.69 137.786 207.805 137.451C207.92 137.116 207.948 136.807 207.89 136.526C207.831 136.244 207.715 136.006 207.541 135.812C207.367 135.618 207.169 135.483 206.948 135.407C206.682 135.315 206.415 135.291 206.146 135.333C205.877 135.375 205.633 135.489 205.413 135.675C205.2 135.863 205.036 136.125 204.921 136.46ZM211.311 134.201C211.361 134.055 211.454 133.949 211.59 133.883C211.732 133.819 211.873 133.81 212.012 133.858C212.158 133.908 212.264 134.001 212.33 134.137C212.396 134.273 212.405 134.414 212.355 134.559C212.307 134.698 212.214 134.804 212.076 134.877C211.94 134.944 211.799 134.952 211.654 134.902C211.515 134.854 211.409 134.761 211.336 134.623C211.272 134.481 211.263 134.34 211.311 134.201ZM210.834 136.052L211.593 136.313L210.094 140.677L209.335 140.416L210.834 136.052ZM215.368 139.519C215.492 139.158 215.507 138.859 215.412 138.621C215.316 138.384 215.117 138.213 214.814 138.108C214.592 138.032 214.38 138.012 214.176 138.049C213.982 138.081 213.808 138.163 213.657 138.295C213.512 138.429 213.403 138.603 213.329 138.818L212.416 141.474L211.657 141.214L213.156 136.85L213.915 137.111L213.681 137.794C213.917 137.578 214.165 137.444 214.424 137.391C214.688 137.341 214.963 137.364 215.248 137.462C215.709 137.621 216.02 137.901 216.179 138.302C216.347 138.699 216.34 139.16 216.16 139.685L215.215 142.436L214.456 142.175L215.368 139.519ZM216.25 143.109L217.018 143.373C216.947 143.582 216.937 143.795 216.99 144.011C217.041 144.233 217.152 144.434 217.324 144.613C217.494 144.799 217.721 144.941 218.006 145.038C218.227 145.114 218.464 145.136 218.716 145.102C218.968 145.068 219.203 144.958 219.423 144.772C219.647 144.594 219.821 144.322 219.947 143.955L221.414 139.686L222.173 139.947L220.706 144.216C220.535 144.716 220.287 145.097 219.963 145.361C219.637 145.631 219.28 145.794 218.893 145.852C218.505 145.91 218.128 145.876 217.761 145.75C217.337 145.604 216.988 145.396 216.714 145.125C216.445 144.856 216.27 144.545 216.186 144.191C216.1 143.843 216.122 143.483 216.25 143.109ZM217.012 140.614C217.175 140.139 217.412 139.768 217.723 139.5C218.036 139.226 218.389 139.054 218.781 138.983C219.173 138.913 219.565 138.945 219.957 139.08C220.324 139.206 220.612 139.407 220.821 139.684C221.03 139.961 221.151 140.296 221.186 140.69C221.229 141.079 221.169 141.511 221.006 141.985C220.845 142.453 220.627 142.831 220.352 143.118C220.082 143.408 219.78 143.597 219.445 143.687C219.11 143.777 218.76 143.759 218.393 143.633C218.001 143.499 217.672 143.283 217.406 142.987C217.14 142.69 216.968 142.338 216.889 141.929C216.81 141.52 216.851 141.082 217.012 140.614ZM217.78 140.877C217.665 141.213 217.634 141.52 217.686 141.8C217.745 142.082 217.868 142.322 218.054 142.52C218.24 142.718 218.466 142.863 218.732 142.954C218.953 143.03 219.192 143.045 219.449 142.999C219.705 142.953 219.943 142.836 220.162 142.65C220.382 142.464 220.549 142.203 220.664 141.868C220.751 141.615 220.786 141.38 220.769 141.162C220.754 140.937 220.7 140.735 220.606 140.554C220.519 140.376 220.405 140.224 220.265 140.098C220.124 139.971 219.972 139.88 219.807 139.824C219.542 139.732 219.274 139.708 219.005 139.75C218.736 139.792 218.492 139.906 218.273 140.092C218.06 140.28 217.895 140.542 217.78 140.877Z" fill="#FD7689"/>
<circle cx="90.9493" cy="76.7537" r="20.5371" transform="rotate(18.957 90.9493 76.7537)" fill="#FD5B71"/>
<path d="M86.5634 76.7421L86.0943 78.1078L81.2772 73.4856L81.5538 72.6802L82.407 73.1142L86.5634 76.7421ZM82.2841 73.4948L81.3469 73.2825L81.626 72.4701L88.2642 71.7906L87.7975 73.1493L82.2841 73.4948ZM87.6333 81.1498L86.5127 80.7649L94.5742 71.1549L95.6878 71.5374L87.6333 81.1498ZM95.747 75.8328L96.2017 74.5092L101.273 79.2109L100.997 80.0163L100.058 79.4903L95.747 75.8328ZM100.161 79.2125L101.204 79.414L100.927 80.2195L94.0342 80.8194L94.4913 79.4887L100.161 79.2125Z" fill="white"/>
<g filter="url(#filter1_d_221_158)">
<rect x="60.0806" y="123.984" width="278.776" height="72.7247" rx="15.8824" transform="rotate(18.957 60.0806 123.984)" fill="white"/>
</g>
<path d="M141.394 179.525L141.858 178.174L145.949 179.579C145.756 180.219 145.476 180.791 145.109 181.292C144.75 181.796 144.314 182.203 143.801 182.513C143.299 182.818 142.741 183.002 142.127 183.065C141.513 183.128 140.866 183.043 140.186 182.81C139.546 182.59 138.989 182.279 138.517 181.878C138.053 181.48 137.686 181.018 137.416 180.492C137.153 179.969 137.004 179.401 136.967 178.787C136.938 178.176 137.034 177.551 137.254 176.91C137.474 176.27 137.786 175.723 138.189 175.269C138.603 174.81 139.077 174.461 139.61 174.22C140.144 173.979 140.718 173.849 141.335 173.831C141.951 173.813 142.579 173.914 143.219 174.133C143.789 174.329 144.271 174.583 144.668 174.896C145.072 175.212 145.399 175.572 145.649 175.976C145.91 176.375 146.1 176.811 146.22 177.285L144.484 177.63C144.403 177.196 144.215 176.805 143.92 176.456C143.635 176.101 143.228 175.833 142.698 175.651C142.2 175.48 141.706 175.439 141.216 175.527C140.729 175.607 140.291 175.814 139.902 176.149C139.521 176.487 139.231 176.944 139.033 177.521C138.837 178.091 138.783 178.633 138.871 179.15C138.962 179.658 139.168 180.1 139.49 180.476C139.819 180.854 140.241 181.131 140.755 181.308C141.095 181.425 141.414 181.486 141.713 181.491C142.014 181.489 142.288 181.437 142.535 181.336C142.79 181.238 143.021 181.105 143.229 180.938C143.436 180.771 143.619 180.573 143.777 180.344L141.394 179.525ZM147.342 183.12C147.287 183.278 147.279 183.43 147.318 183.575C147.359 183.713 147.436 183.837 147.548 183.946C147.672 184.051 147.816 184.131 147.982 184.188C148.219 184.27 148.449 184.296 148.672 184.266C148.897 184.228 149.1 184.139 149.281 183.998C149.464 183.849 149.601 183.644 149.691 183.383L149.636 184.16C149.517 184.507 149.317 184.766 149.038 184.935C148.767 185.107 148.457 185.2 148.108 185.212C147.767 185.228 147.43 185.178 147.098 185.064C146.758 184.948 146.465 184.772 146.219 184.537C145.972 184.302 145.802 184.027 145.707 183.711C145.622 183.391 145.644 183.045 145.772 182.673C145.953 182.143 146.283 181.788 146.761 181.608C147.238 181.427 147.817 181.453 148.497 181.687C148.845 181.806 149.137 181.946 149.373 182.107C149.618 182.271 149.813 182.435 149.96 182.6C150.106 182.766 150.203 182.909 150.249 183.031L150.005 183.743C149.845 183.511 149.645 183.31 149.403 183.138C149.17 182.97 148.907 182.835 148.614 182.735C148.377 182.653 148.172 182.618 148 182.63C147.831 182.634 147.692 182.679 147.583 182.765C147.476 182.843 147.396 182.962 147.342 183.12ZM147.51 180.698L147.3 179.459C147.636 179.407 148.033 179.384 148.49 179.391C148.95 179.39 149.433 179.476 149.939 179.65C150.405 179.81 150.797 180.02 151.115 180.279C151.432 180.539 151.649 180.834 151.765 181.165C151.884 181.489 151.879 181.837 151.751 182.208L150.424 186.074L148.941 185.565L150.159 182.019C150.211 181.869 150.23 181.734 150.218 181.615C150.209 181.488 150.165 181.372 150.087 181.265C150.016 181.161 149.919 181.071 149.796 180.993C149.672 180.915 149.527 180.848 149.361 180.791C149.108 180.704 148.858 180.649 148.61 180.625C148.361 180.602 148.141 180.601 147.947 180.623C147.754 180.645 147.609 180.67 147.51 180.698ZM161.114 185.848L159.916 189.335L158.375 188.805L159.515 185.485C159.643 185.113 159.675 184.815 159.611 184.589C159.549 184.356 159.376 184.191 159.092 184.093C158.902 184.028 158.721 184.014 158.549 184.052C158.379 184.083 158.225 184.171 158.086 184.318C157.95 184.457 157.842 184.645 157.76 184.882L156.62 188.202L155.09 187.677L156.23 184.356C156.358 183.985 156.39 183.686 156.326 183.461C156.264 183.228 156.091 183.063 155.807 182.965C155.617 182.9 155.436 182.886 155.264 182.924C155.094 182.954 154.94 183.043 154.802 183.19C154.665 183.328 154.557 183.516 154.475 183.754L153.335 187.074L151.852 186.565L153.726 181.11L155.208 181.619L154.931 182.425C155.193 182.179 155.481 182.022 155.796 181.954C156.111 181.885 156.451 181.913 156.814 182.038C157.218 182.177 157.523 182.37 157.729 182.617C157.936 182.865 158.045 183.164 158.058 183.513C158.362 183.272 158.683 183.122 159.022 183.061C159.369 183.004 159.728 183.039 160.099 183.166C160.503 183.305 160.802 183.501 160.998 183.754C161.197 183.999 161.301 184.3 161.311 184.657C161.332 185.008 161.266 185.406 161.114 185.848ZM163.962 190.857C163.369 190.653 162.892 190.357 162.531 189.968C162.17 189.578 161.938 189.132 161.837 188.629C161.747 188.121 161.801 187.578 161.999 187.001C162.2 186.416 162.491 185.954 162.872 185.617C163.264 185.274 163.72 185.064 164.242 184.987C164.766 184.902 165.328 184.963 165.929 185.169C166.53 185.375 167.002 185.661 167.345 186.026C167.699 186.387 167.914 186.814 167.992 187.309C168.072 187.796 168.011 188.332 167.81 188.917C167.786 188.989 167.756 189.062 167.721 189.139C167.694 189.218 167.668 189.28 167.644 189.324L162.758 187.646L163.084 186.697L166.63 187.915L166.027 188.318C166.075 188.282 166.125 188.228 166.176 188.157C166.237 188.081 166.277 188.015 166.296 187.96C166.389 187.691 166.416 187.444 166.378 187.219C166.349 186.997 166.262 186.799 166.118 186.626C165.974 186.453 165.78 186.324 165.535 186.24C165.234 186.137 164.958 186.117 164.707 186.181C164.466 186.239 164.245 186.38 164.045 186.603C163.855 186.821 163.691 187.118 163.553 187.495C163.428 187.858 163.373 188.184 163.389 188.473C163.413 188.764 163.508 189.013 163.676 189.221C163.843 189.428 164.077 189.584 164.377 189.687C164.717 189.804 165.028 189.84 165.308 189.795C165.599 189.745 165.869 189.616 166.117 189.41L167.314 190.285C166.853 190.701 166.34 190.958 165.776 191.056C165.223 191.149 164.618 191.082 163.962 190.857ZM174.556 185.083L176.288 185.678L173.436 193.979L171.705 193.384L174.556 185.083ZM174.527 194.354L172.796 193.759L173.326 192.217L174.998 192.792C175.361 192.916 175.722 192.987 176.078 193.004C176.438 193.012 176.777 192.952 177.095 192.823C177.413 192.693 177.695 192.49 177.941 192.212C178.198 191.928 178.404 191.558 178.562 191.099C178.719 190.641 178.783 190.225 178.752 189.852C178.731 189.474 178.635 189.136 178.464 188.838C178.292 188.54 178.06 188.288 177.769 188.082C177.48 187.868 177.154 187.699 176.79 187.574L175.118 186.999L175.647 185.458L177.379 186.052C178.248 186.351 178.949 186.782 179.48 187.344C180.02 187.91 180.364 188.567 180.513 189.317C180.665 190.058 180.596 190.852 180.305 191.698C180.015 192.544 179.58 193.217 179.002 193.716C178.427 194.208 177.752 194.511 176.979 194.626C176.214 194.743 175.397 194.652 174.527 194.354ZM182.584 197.253C181.991 197.05 181.514 196.753 181.153 196.364C180.791 195.975 180.56 195.529 180.459 195.025C180.369 194.517 180.422 193.974 180.621 193.397C180.822 192.812 181.113 192.351 181.494 192.013C181.885 191.671 182.342 191.461 182.864 191.383C183.388 191.298 183.95 191.359 184.551 191.565C185.152 191.772 185.624 192.058 185.967 192.423C186.32 192.783 186.536 193.211 186.613 193.706C186.693 194.193 186.633 194.729 186.432 195.314C186.408 195.385 186.378 195.459 186.343 195.535C186.316 195.614 186.29 195.676 186.266 195.721L181.38 194.042L181.706 193.094L185.252 194.312L184.649 194.715C184.697 194.678 184.747 194.624 184.797 194.553C184.859 194.477 184.899 194.412 184.918 194.356C185.011 194.087 185.038 193.841 185 193.616C184.971 193.393 184.884 193.195 184.74 193.022C184.596 192.849 184.402 192.721 184.157 192.636C183.856 192.533 183.58 192.513 183.328 192.577C183.087 192.636 182.867 192.777 182.666 192.999C182.477 193.217 182.313 193.514 182.175 193.891C182.05 194.255 181.995 194.581 182.011 194.869C182.035 195.16 182.13 195.409 182.298 195.617C182.465 195.825 182.699 195.98 182.999 196.084C183.339 196.2 183.649 196.236 183.93 196.191C184.221 196.141 184.491 196.013 184.738 195.806L185.936 196.681C185.475 197.097 184.962 197.354 184.398 197.452C183.845 197.545 183.24 197.479 182.584 197.253ZM187.547 192.727L189.195 193.293L189.407 197.038L191.875 194.214L193.523 194.78L188.466 199.778L187.547 192.727ZM194.744 201.43C194.151 201.227 193.674 200.93 193.313 200.541C192.951 200.152 192.72 199.705 192.619 199.202C192.528 198.694 192.582 198.151 192.78 197.574C192.981 196.989 193.272 196.528 193.654 196.19C194.045 195.847 194.502 195.637 195.023 195.56C195.547 195.475 196.11 195.536 196.711 195.742C197.312 195.948 197.784 196.234 198.127 196.6C198.48 196.96 198.696 197.387 198.773 197.882C198.853 198.369 198.793 198.906 198.592 199.491C198.567 199.562 198.538 199.635 198.503 199.712C198.476 199.791 198.45 199.853 198.426 199.897L193.54 198.219L193.866 197.271L197.411 198.488L196.809 198.891C196.857 198.855 196.906 198.801 196.957 198.73C197.019 198.654 197.059 198.588 197.078 198.533C197.17 198.264 197.198 198.017 197.16 197.792C197.13 197.57 197.044 197.372 196.9 197.199C196.756 197.026 196.562 196.897 196.316 196.813C196.016 196.71 195.74 196.69 195.488 196.754C195.247 196.813 195.026 196.953 194.826 197.176C194.637 197.394 194.473 197.691 194.334 198.068C194.209 198.432 194.155 198.758 194.171 199.046C194.195 199.337 194.29 199.586 194.457 199.794C194.625 200.002 194.859 200.157 195.159 200.26C195.499 200.377 195.809 200.413 196.09 200.368C196.381 200.318 196.651 200.189 196.898 199.983L198.096 200.858C197.635 201.274 197.122 201.531 196.558 201.629C196.005 201.722 195.4 201.656 194.744 201.43ZM201.966 193.437L203.508 193.967L200.331 203.217L198.789 202.687L201.966 193.437ZM202.416 200.883C202.611 200.314 202.913 199.861 203.32 199.524C203.736 199.189 204.209 198.981 204.741 198.898C205.281 198.819 205.84 198.878 206.417 199.076C206.994 199.274 207.467 199.569 207.837 199.961C208.214 200.356 208.459 200.812 208.574 201.328C208.696 201.847 208.659 202.392 208.464 202.961C208.271 203.522 207.965 203.974 207.547 204.317C207.14 204.654 206.666 204.862 206.126 204.942C205.594 205.024 205.039 204.966 204.462 204.768C203.885 204.57 203.408 204.274 203.031 203.879C202.662 203.487 202.416 203.031 202.294 202.512C202.182 201.988 202.223 201.445 202.416 200.883ZM203.981 201.421C203.875 201.729 203.845 202.024 203.89 202.305C203.945 202.58 204.061 202.823 204.236 203.033C204.414 203.236 204.637 203.383 204.906 203.476C205.175 203.568 205.442 203.589 205.706 203.538C205.974 203.48 206.21 203.358 206.416 203.172C206.631 202.981 206.792 202.732 206.898 202.423C207.004 202.115 207.031 201.819 206.978 201.536C206.933 201.255 206.821 201.014 206.643 200.811C206.465 200.608 206.242 200.461 205.973 200.369C205.704 200.276 205.438 200.255 205.173 200.306C204.908 200.356 204.668 200.477 204.452 200.668C204.244 200.862 204.087 201.113 203.981 201.421ZM209.289 209.21L207.747 208.681L210.517 200.617L212.059 201.146L209.289 209.21ZM215.605 205.414C215.393 206.03 215.09 206.514 214.695 206.865C214.301 207.215 213.864 207.432 213.385 207.515C212.913 207.6 212.448 207.565 211.99 207.407C211.523 207.247 211.157 206.988 210.891 206.632C210.632 206.278 210.483 205.851 210.442 205.351C210.41 204.854 210.494 204.312 210.695 203.727C210.899 203.134 211.165 202.656 211.493 202.291C211.832 201.922 212.213 201.677 212.634 201.556C213.063 201.439 213.511 201.46 213.978 201.62C214.436 201.777 214.825 202.035 215.144 202.392C215.471 202.752 215.683 203.191 215.779 203.71C215.877 204.221 215.819 204.789 215.605 205.414ZM214.015 204.868C214.127 204.544 214.155 204.244 214.099 203.969C214.043 203.693 213.921 203.457 213.733 203.259C213.552 203.065 213.327 202.921 213.059 202.829C212.829 202.75 212.584 202.732 212.322 202.775C212.07 202.812 211.834 202.921 211.613 203.101C211.4 203.284 211.236 203.542 211.122 203.874C211.008 204.206 210.979 204.51 211.034 204.785C211.098 205.063 211.216 205.298 211.389 205.49C211.572 205.677 211.778 205.81 212.008 205.888C212.276 205.981 212.542 206.006 212.804 205.963C213.074 205.923 213.316 205.812 213.529 205.629C213.742 205.446 213.904 205.192 214.015 204.868ZM225.074 207.818L223.877 211.304L222.335 210.775L223.476 207.454C223.603 207.083 223.635 206.784 223.571 206.559C223.51 206.326 223.337 206.16 223.052 206.063C222.862 205.998 222.681 205.984 222.509 206.022C222.34 206.052 222.186 206.141 222.047 206.288C221.911 206.426 221.802 206.614 221.72 206.852L220.58 210.172L219.05 209.647L220.191 206.326C220.318 205.955 220.35 205.656 220.286 205.431C220.225 205.198 220.052 205.032 219.767 204.934C219.577 204.869 219.397 204.856 219.224 204.894C219.055 204.924 218.901 205.012 218.762 205.159C218.626 205.298 218.517 205.486 218.436 205.723L217.295 209.044L215.813 208.535L217.686 203.08L219.169 203.589L218.892 204.395C219.153 204.149 219.441 203.992 219.757 203.923C220.072 203.855 220.411 203.883 220.775 204.008C221.178 204.146 221.483 204.339 221.69 204.587C221.896 204.835 222.006 205.133 222.018 205.482C222.322 205.242 222.643 205.091 222.982 205.031C223.329 204.973 223.688 205.008 224.06 205.136C224.463 205.275 224.763 205.47 224.958 205.723C225.157 205.968 225.261 206.269 225.271 206.626C225.292 206.978 225.226 207.375 225.074 207.818ZM227.923 212.827C227.33 212.623 226.853 212.327 226.491 211.937C226.13 211.548 225.899 211.102 225.798 210.599C225.707 210.09 225.761 209.548 225.959 208.97C226.16 208.385 226.451 207.924 226.832 207.587C227.224 207.244 227.681 207.034 228.202 206.957C228.726 206.872 229.289 206.932 229.89 207.139C230.491 207.345 230.962 207.631 231.305 207.996C231.659 208.356 231.875 208.784 231.952 209.279C232.032 209.766 231.972 210.302 231.771 210.887C231.746 210.958 231.717 211.032 231.681 211.108C231.654 211.187 231.629 211.249 231.604 211.294L226.719 209.616L227.045 208.667L230.59 209.885L229.988 210.288C230.036 210.251 230.085 210.198 230.136 210.127C230.198 210.051 230.238 209.985 230.257 209.93C230.349 209.661 230.377 209.414 230.339 209.189C230.309 208.966 230.222 208.769 230.079 208.596C229.935 208.422 229.74 208.294 229.495 208.21C229.195 208.106 228.919 208.087 228.667 208.151C228.426 208.209 228.205 208.35 228.005 208.573C227.815 208.79 227.651 209.088 227.513 209.464C227.388 209.828 227.334 210.154 227.35 210.442C227.373 210.733 227.469 210.983 227.636 211.19C227.803 211.398 228.037 211.554 228.338 211.657C228.678 211.774 228.988 211.809 229.269 211.764C229.56 211.714 229.829 211.586 230.077 211.379L231.275 212.255C230.813 212.671 230.301 212.928 229.737 213.026C229.184 213.118 228.579 213.052 227.923 212.827ZM236.63 211.973C236.755 211.609 236.779 211.308 236.702 211.07C236.625 210.831 236.428 210.657 236.112 210.549C235.899 210.475 235.693 210.458 235.494 210.495C235.298 210.525 235.128 210.608 234.984 210.745C234.84 210.881 234.729 211.063 234.65 211.293L233.51 214.613L231.968 214.084L233.842 208.629L235.383 209.158L235.098 209.988C235.37 209.737 235.668 209.578 235.991 209.513C236.324 209.442 236.685 209.473 237.072 209.606C237.721 209.828 238.139 210.18 238.328 210.66C238.519 211.132 238.502 211.697 238.277 212.353L237.079 215.839L235.49 215.293L236.63 211.973ZM239.766 210.664L243.134 211.82L242.69 213.113L239.322 211.956L239.766 210.664ZM241.355 209.088L242.837 209.597L240.312 216.95L238.829 216.44L241.355 209.088Z" fill="black"/>
<rect x="125.841" y="191.649" width="58.8327" height="20.062" rx="5.06068" transform="rotate(18.957 125.841 191.649)" fill="#F2F2F2"/>
<path d="M135.413 201.819L136.219 202.096L133.938 208.737L133.132 208.46L135.413 201.819ZM135.598 202.731L135.859 201.972L137.215 202.438C137.645 202.586 138 202.799 138.278 203.079C138.566 203.354 138.756 203.674 138.85 204.039C138.951 204.406 138.93 204.795 138.789 205.206C138.65 205.611 138.427 205.93 138.12 206.164C137.822 206.394 137.474 206.532 137.076 206.58C136.687 206.623 136.277 206.57 135.847 206.422L134.49 205.956L134.751 205.197L136.107 205.663C136.537 205.811 136.921 205.826 137.258 205.709C137.602 205.594 137.843 205.334 137.982 204.929C138.124 204.518 138.093 204.164 137.891 203.868C137.697 203.568 137.385 203.345 136.955 203.197L135.598 202.731ZM139.651 210.805C139.246 210.666 138.918 210.447 138.667 210.149C138.424 209.846 138.273 209.494 138.213 209.091C138.16 208.691 138.21 208.267 138.365 207.818C138.521 207.362 138.746 206.994 139.041 206.713C139.341 206.435 139.686 206.256 140.073 206.177C140.467 206.101 140.88 206.136 141.31 206.284C141.74 206.431 142.075 206.649 142.316 206.937C142.565 207.22 142.714 207.558 142.763 207.95C142.812 208.341 142.758 208.768 142.599 209.23C142.584 209.274 142.565 209.32 142.541 209.369C142.526 209.413 142.516 209.442 142.512 209.454L138.783 208.174L139.005 207.528L142.135 208.604L141.682 208.936C141.712 208.911 141.747 208.87 141.788 208.813C141.831 208.75 141.86 208.696 141.875 208.652C141.964 208.393 141.987 208.15 141.945 207.923C141.909 207.699 141.818 207.501 141.671 207.331C141.525 207.16 141.328 207.033 141.082 206.948C140.791 206.848 140.519 206.825 140.267 206.88C140.023 206.931 139.804 207.054 139.61 207.248C139.424 207.439 139.271 207.701 139.149 208.034C139.032 208.376 138.986 208.685 139.011 208.962C139.036 209.24 139.131 209.477 139.296 209.675C139.461 209.874 139.693 210.024 139.99 210.126C140.287 210.228 140.571 210.255 140.842 210.207C141.116 210.152 141.377 210.019 141.626 209.808L142.109 210.409C141.756 210.697 141.372 210.877 140.959 210.947C140.555 211.013 140.119 210.966 139.651 210.805ZM145.135 207.704L143.636 212.068L142.877 211.807L144.376 207.443L145.135 207.704ZM146.167 208.992C146.092 208.881 146.018 208.796 145.947 208.736C145.878 208.67 145.78 208.615 145.654 208.571C145.464 208.506 145.299 208.502 145.159 208.56C145.019 208.618 144.898 208.722 144.797 208.871C144.703 209.023 144.62 209.203 144.548 209.411L144.207 209.294C144.326 208.946 144.492 208.66 144.703 208.436C144.923 208.207 145.158 208.048 145.409 207.957C145.659 207.866 145.885 207.855 146.088 207.925C146.246 207.979 146.384 208.051 146.501 208.141C146.627 208.227 146.727 208.349 146.799 208.509L146.167 208.992ZM146.769 211.648C146.811 211.811 146.87 211.97 146.945 212.123C147.02 212.275 147.118 212.412 147.239 212.531C147.37 212.647 147.523 212.735 147.7 212.796C147.915 212.869 148.099 212.88 148.252 212.826C148.413 212.768 148.523 212.654 148.582 212.483C148.634 212.331 148.627 212.188 148.56 212.052C148.502 211.911 148.409 211.781 148.282 211.659C148.156 211.531 148.018 211.406 147.869 211.284C147.706 211.143 147.543 210.988 147.382 210.82C147.229 210.647 147.115 210.455 147.038 210.245C146.97 210.031 146.98 209.798 147.067 209.545C147.156 209.285 147.296 209.093 147.488 208.968C147.685 208.845 147.906 208.779 148.149 208.771C148.399 208.765 148.641 208.802 148.875 208.882C149.109 208.963 149.314 209.076 149.49 209.221C149.673 209.369 149.822 209.533 149.936 209.714C150.051 209.894 150.124 210.082 150.156 210.277L149.415 210.457C149.352 210.252 149.247 210.064 149.1 209.893C148.96 209.725 148.776 209.601 148.548 209.523C148.39 209.469 148.242 209.457 148.105 209.487C147.967 209.518 147.873 209.606 147.823 209.751C147.784 209.865 147.794 209.982 147.852 210.101C147.91 210.22 147.996 210.338 148.112 210.455C148.227 210.572 148.35 210.689 148.48 210.804C148.698 210.992 148.891 211.182 149.058 211.374C149.228 211.56 149.344 211.755 149.408 211.961C149.478 212.169 149.469 212.402 149.38 212.662C149.249 213.041 149.001 213.31 148.636 213.467C148.277 213.627 147.873 213.629 147.424 213.475C147.133 213.375 146.888 213.234 146.689 213.053C146.492 212.865 146.34 212.66 146.232 212.44C146.13 212.221 146.067 212.012 146.044 211.813L146.769 211.648ZM150.325 211.926C150.477 211.483 150.71 211.125 151.023 210.851C151.343 210.579 151.707 210.403 152.116 210.324C152.525 210.246 152.941 210.279 153.365 210.425C153.795 210.572 154.144 210.802 154.412 211.113C154.686 211.426 154.863 211.788 154.941 212.196C155.026 212.607 154.993 213.034 154.841 213.477C154.691 213.913 154.455 214.271 154.133 214.549C153.82 214.823 153.459 215 153.05 215.079C152.647 215.159 152.231 215.126 151.801 214.978C151.377 214.833 151.028 214.603 150.754 214.29C150.48 213.977 150.3 213.614 150.215 213.203C150.139 212.788 150.175 212.362 150.325 211.926ZM151.094 212.19C150.989 212.493 150.96 212.784 151.006 213.061C151.059 213.341 151.172 213.588 151.345 213.804C151.527 214.015 151.761 214.169 152.045 214.267C152.33 214.365 152.606 214.385 152.873 214.328C153.148 214.267 153.389 214.142 153.596 213.951C153.809 213.763 153.968 213.517 154.072 213.213C154.177 212.91 154.203 212.618 154.15 212.338C154.106 212.054 153.993 211.807 153.811 211.596C153.635 211.387 153.405 211.234 153.121 211.136C152.836 211.038 152.557 211.017 152.284 211.071C152.017 211.128 151.776 211.254 151.56 211.449C151.353 211.639 151.198 211.886 151.094 212.19ZM158.845 214.322C158.969 213.962 158.983 213.663 158.888 213.425C158.793 213.187 158.594 213.016 158.29 212.912C158.069 212.836 157.856 212.816 157.653 212.852C157.458 212.884 157.285 212.966 157.134 213.098C156.989 213.232 156.879 213.406 156.805 213.622L155.893 216.278L155.134 216.017L156.633 211.653L157.392 211.914L157.157 212.597C157.394 212.381 157.642 212.247 157.9 212.194C158.165 212.144 158.44 212.168 158.724 212.265C159.186 212.424 159.496 212.704 159.656 213.105C159.823 213.502 159.817 213.963 159.637 214.488L158.692 217.239L157.933 216.978L158.845 214.322ZM160.923 216.499C160.866 216.664 160.855 216.819 160.89 216.965C160.931 217.114 161.01 217.244 161.127 217.355C161.253 217.461 161.408 217.546 161.591 217.609C161.825 217.69 162.05 217.714 162.266 217.682C162.489 217.652 162.683 217.571 162.849 217.437C163.024 217.299 163.15 217.116 163.228 216.888L163.185 217.51C163.089 217.788 162.924 217.99 162.691 218.114C162.463 218.241 162.211 218.307 161.934 218.31C161.663 218.316 161.408 218.278 161.167 218.196C160.902 218.104 160.67 217.965 160.473 217.777C160.285 217.585 160.157 217.361 160.089 217.104C160.022 216.848 160.039 216.571 160.141 216.273C160.287 215.85 160.552 215.562 160.936 215.411C161.328 215.256 161.793 215.271 162.331 215.456C162.647 215.565 162.897 215.693 163.079 215.84C163.271 215.984 163.413 216.125 163.507 216.263C163.603 216.395 163.663 216.497 163.688 216.569L163.535 217.015C163.366 216.787 163.175 216.601 162.963 216.458C162.753 216.308 162.515 216.187 162.249 216.096C162.002 216.011 161.789 215.973 161.609 215.982C161.436 215.993 161.292 216.043 161.177 216.131C161.062 216.218 160.977 216.341 160.923 216.499ZM161.5 214.449L161.322 213.762C161.528 213.699 161.793 213.656 162.119 213.633C162.451 213.613 162.82 213.672 163.225 213.811C163.566 213.929 163.845 214.084 164.061 214.279C164.286 214.469 164.434 214.686 164.506 214.93C164.584 215.176 164.574 215.441 164.476 215.726L163.401 218.857L162.642 218.596L163.681 215.57C163.734 215.418 163.751 215.286 163.733 215.174C163.717 215.055 163.671 214.951 163.596 214.862C163.527 214.774 163.437 214.697 163.325 214.631C163.214 214.564 163.092 214.508 162.959 214.462C162.744 214.388 162.539 214.346 162.344 214.336C162.156 214.328 161.99 214.338 161.846 214.367C161.702 214.395 161.587 214.422 161.5 214.449ZM167.228 211.898L167.986 212.159L165.445 219.559L164.686 219.298L167.228 211.898Z" fill="#797979"/>
<rect x="192.612" y="214.583" width="98.6579" height="20.062" rx="5.0155" transform="rotate(18.957 192.612 214.583)" fill="#F5EEFC"/>
<path d="M203.362 224.63L204.169 224.907L201.888 231.548L201.081 231.271L203.362 224.63ZM207.07 230.358C207.194 229.998 207.208 229.699 207.113 229.461C207.018 229.223 206.819 229.052 206.515 228.948C206.294 228.872 206.081 228.852 205.878 228.888C205.683 228.92 205.51 229.002 205.359 229.134C205.214 229.268 205.104 229.443 205.03 229.658L204.118 232.314L203.359 232.053L204.858 227.689L205.617 227.95L205.382 228.633C205.619 228.417 205.867 228.283 206.125 228.231C206.39 228.18 206.665 228.204 206.949 228.302C207.411 228.46 207.721 228.74 207.881 229.141C208.048 229.538 208.042 229.999 207.862 230.524L206.917 233.275L206.158 233.015L207.07 230.358ZM209.178 229.173L211.36 229.923L211.116 230.634L208.934 229.885L209.178 229.173ZM210.411 227.9L211.17 228.16L209.15 234.042L208.391 233.782L210.411 227.9ZM212.279 235.223C211.874 235.084 211.546 234.865 211.295 234.567C211.052 234.264 210.901 233.912 210.841 233.51C210.788 233.109 210.838 232.685 210.993 232.236C211.149 231.78 211.374 231.412 211.669 231.132C211.97 230.853 212.314 230.674 212.701 230.596C213.096 230.519 213.508 230.554 213.938 230.702C214.368 230.85 214.703 231.067 214.944 231.355C215.193 231.639 215.342 231.976 215.391 232.368C215.441 232.76 215.386 233.186 215.227 233.648C215.212 233.692 215.193 233.739 215.169 233.787C215.154 233.831 215.144 233.86 215.14 233.872L211.411 232.592L211.633 231.947L214.763 233.022L214.31 233.354C214.34 233.329 214.375 233.288 214.416 233.231C214.459 233.168 214.488 233.115 214.503 233.07C214.592 232.811 214.615 232.568 214.573 232.341C214.537 232.117 214.446 231.919 214.299 231.749C214.153 231.578 213.956 231.451 213.71 231.366C213.419 231.266 213.147 231.244 212.895 231.298C212.651 231.349 212.432 231.472 212.238 231.667C212.052 231.857 211.899 232.119 211.777 232.452C211.66 232.794 211.614 233.103 211.639 233.381C211.664 233.658 211.759 233.896 211.924 234.094C212.089 234.292 212.321 234.442 212.618 234.544C212.915 234.646 213.199 234.673 213.47 234.625C213.744 234.57 214.005 234.437 214.254 234.226L214.738 234.827C214.384 235.115 214 235.295 213.587 235.365C213.183 235.431 212.747 235.384 212.279 235.223ZM217.763 232.122L216.264 236.486L215.505 236.225L217.004 231.861L217.763 232.122ZM218.795 233.41C218.72 233.299 218.646 233.214 218.575 233.154C218.506 233.088 218.408 233.033 218.282 232.989C218.092 232.924 217.927 232.921 217.787 232.979C217.647 233.037 217.526 233.14 217.426 233.289C217.331 233.441 217.248 233.621 217.176 233.83L216.835 233.712C216.954 233.364 217.12 233.078 217.331 232.854C217.551 232.625 217.786 232.466 218.037 232.375C218.287 232.284 218.513 232.274 218.716 232.343C218.874 232.397 219.012 232.47 219.129 232.559C219.255 232.645 219.355 232.768 219.427 232.927L218.795 233.41ZM219.561 236.112C219.505 236.277 219.494 236.432 219.528 236.578C219.569 236.727 219.648 236.857 219.766 236.968C219.892 237.074 220.046 237.159 220.23 237.222C220.464 237.303 220.689 237.327 220.905 237.295C221.127 237.265 221.321 237.184 221.488 237.05C221.662 236.912 221.789 236.729 221.867 236.501L221.823 237.123C221.728 237.401 221.563 237.603 221.329 237.727C221.102 237.854 220.849 237.92 220.572 237.923C220.302 237.929 220.046 237.891 219.806 237.809C219.54 237.717 219.309 237.578 219.112 237.39C218.923 237.198 218.795 236.974 218.728 236.717C218.66 236.461 218.678 236.184 218.78 235.886C218.925 235.463 219.19 235.175 219.574 235.024C219.967 234.869 220.432 234.884 220.97 235.069C221.286 235.177 221.535 235.306 221.718 235.453C221.909 235.597 222.052 235.737 222.145 235.876C222.242 236.008 222.302 236.11 222.327 236.182L222.173 236.628C222.004 236.4 221.814 236.214 221.601 236.071C221.391 235.921 221.153 235.8 220.888 235.709C220.641 235.624 220.428 235.586 220.248 235.595C220.074 235.606 219.93 235.656 219.815 235.744C219.7 235.831 219.615 235.954 219.561 236.112ZM220.138 234.062L219.96 233.375C220.166 233.312 220.432 233.268 220.758 233.246C221.09 233.226 221.458 233.285 221.863 233.424C222.205 233.542 222.484 233.697 222.7 233.892C222.924 234.082 223.072 234.299 223.144 234.543C223.222 234.789 223.212 235.054 223.115 235.339L222.039 238.47L221.28 238.209L222.32 235.183C222.372 235.031 222.389 234.899 222.371 234.787C222.355 234.668 222.31 234.564 222.234 234.474C222.165 234.387 222.075 234.31 221.964 234.244C221.852 234.177 221.73 234.121 221.597 234.075C221.382 234.001 221.177 233.959 220.983 233.949C220.795 233.941 220.629 233.951 220.485 233.98C220.341 234.008 220.225 234.035 220.138 234.062ZM224.415 236.846C224.311 237.15 224.282 237.44 224.328 237.718C224.381 237.998 224.494 238.245 224.667 238.46C224.849 238.671 225.082 238.826 225.367 238.923C225.601 239.004 225.831 239.044 226.058 239.044C226.292 239.04 226.506 239.004 226.699 238.935C226.895 238.861 227.048 238.765 227.159 238.648L226.833 239.597C226.62 239.721 226.354 239.786 226.035 239.789C225.724 239.788 225.42 239.737 225.123 239.635C224.699 239.489 224.35 239.26 224.076 238.946C223.802 238.633 223.622 238.271 223.537 237.86C223.46 237.445 223.497 237.019 223.647 236.582C223.799 236.14 224.032 235.781 224.345 235.507C224.665 235.235 225.029 235.06 225.438 234.981C225.847 234.902 226.263 234.936 226.687 235.081C226.984 235.183 227.254 235.333 227.498 235.529C227.75 235.722 227.922 235.933 228.012 236.162L227.687 237.111C227.673 236.944 227.611 236.774 227.501 236.602C227.39 236.429 227.243 236.273 227.058 236.131C226.882 235.986 226.676 235.873 226.442 235.793C226.158 235.695 225.879 235.673 225.606 235.728C225.339 235.785 225.097 235.91 224.882 236.105C224.675 236.296 224.52 236.543 224.415 236.846ZM228.69 235.875L230.872 236.625L230.627 237.336L228.445 236.587L228.69 235.875ZM229.922 234.602L230.681 234.862L228.661 240.744L227.902 240.483L229.922 234.602ZM232.252 235.084C232.302 234.938 232.395 234.832 232.531 234.766C232.673 234.701 232.814 234.693 232.953 234.741C233.098 234.791 233.204 234.884 233.271 235.02C233.337 235.156 233.345 235.297 233.295 235.442C233.248 235.581 233.155 235.687 233.017 235.76C232.881 235.826 232.74 235.835 232.594 235.785C232.455 235.737 232.349 235.644 232.277 235.506C232.212 235.363 232.204 235.223 232.252 235.084ZM231.775 236.935L232.534 237.196L231.035 241.56L230.276 241.299L231.775 236.935ZM233.386 237.488L234.239 237.781L234.414 241.288L236.706 238.629L237.56 238.922L233.86 242.901L233.386 237.488ZM238.294 244.159C237.889 244.02 237.561 243.801 237.31 243.503C237.067 243.2 236.916 242.848 236.856 242.446C236.803 242.045 236.853 241.621 237.008 241.172C237.164 240.716 237.389 240.348 237.684 240.068C237.984 239.789 238.329 239.61 238.716 239.531C239.11 239.455 239.523 239.49 239.953 239.638C240.383 239.785 240.718 240.003 240.959 240.291C241.208 240.574 241.357 240.912 241.406 241.304C241.455 241.695 241.401 242.122 241.242 242.584C241.227 242.628 241.208 242.674 241.184 242.723C241.169 242.767 241.159 242.796 241.155 242.808L237.426 241.528L237.648 240.882L240.778 241.958L240.325 242.29C240.355 242.265 240.39 242.224 240.431 242.167C240.474 242.104 240.503 242.05 240.518 242.006C240.607 241.747 240.63 241.504 240.588 241.277C240.552 241.053 240.461 240.855 240.314 240.685C240.168 240.514 239.971 240.387 239.725 240.302C239.434 240.202 239.162 240.179 238.91 240.234C238.666 240.285 238.447 240.408 238.253 240.602C238.067 240.793 237.914 241.055 237.792 241.388C237.675 241.73 237.629 242.039 237.654 242.316C237.679 242.594 237.774 242.831 237.939 243.03C238.104 243.228 238.336 243.378 238.633 243.48C238.93 243.582 239.214 243.609 239.485 243.561C239.759 243.506 240.02 243.373 240.269 243.162L240.753 243.763C240.399 244.051 240.015 244.231 239.602 244.301C239.198 244.367 238.762 244.32 238.294 244.159ZM243.972 246.322L244.741 246.586C244.669 246.794 244.66 247.007 244.713 247.223C244.764 247.445 244.875 247.646 245.047 247.826C245.216 248.011 245.443 248.153 245.728 248.25C245.949 248.326 246.186 248.348 246.438 248.314C246.69 248.28 246.926 248.17 247.145 247.984C247.369 247.806 247.544 247.534 247.67 247.167L249.136 242.898L249.895 243.159L248.429 247.428C248.257 247.928 248.009 248.309 247.686 248.573C247.359 248.843 247.003 249.006 246.615 249.064C246.228 249.122 245.85 249.088 245.484 248.962C245.06 248.816 244.711 248.608 244.436 248.337C244.168 248.068 243.992 247.757 243.909 247.403C243.823 247.055 243.844 246.695 243.972 246.322ZM244.734 243.826C244.897 243.351 245.134 242.98 245.445 242.712C245.759 242.438 246.111 242.266 246.503 242.195C246.895 242.125 247.287 242.157 247.679 242.292C248.046 242.418 248.334 242.619 248.543 242.896C248.752 243.173 248.874 243.508 248.908 243.902C248.951 244.291 248.891 244.723 248.728 245.198C248.567 245.666 248.349 246.043 248.074 246.33C247.805 246.62 247.503 246.81 247.168 246.9C246.833 246.99 246.482 246.972 246.115 246.846C245.723 246.711 245.394 246.495 245.128 246.199C244.862 245.903 244.69 245.55 244.611 245.141C244.532 244.732 244.573 244.294 244.734 243.826ZM245.503 244.09C245.388 244.425 245.356 244.732 245.409 245.012C245.467 245.294 245.59 245.534 245.776 245.732C245.963 245.931 246.189 246.075 246.454 246.167C246.676 246.243 246.915 246.257 247.171 246.211C247.427 246.165 247.665 246.049 247.885 245.862C248.104 245.676 248.272 245.415 248.387 245.08C248.474 244.827 248.508 244.592 248.491 244.374C248.477 244.15 248.422 243.947 248.329 243.766C248.242 243.588 248.128 243.436 247.987 243.31C247.847 243.184 247.694 243.092 247.53 243.036C247.264 242.945 246.997 242.92 246.728 242.962C246.459 243.004 246.215 243.118 245.995 243.304C245.782 243.493 245.618 243.754 245.503 244.09ZM250.579 246.767C250.522 246.931 250.512 247.086 250.546 247.233C250.587 247.381 250.666 247.511 250.784 247.622C250.91 247.729 251.064 247.814 251.248 247.877C251.482 247.957 251.707 247.981 251.923 247.949C252.145 247.92 252.339 247.838 252.505 247.704C252.68 247.566 252.807 247.383 252.885 247.156L252.841 247.777C252.745 248.055 252.581 248.257 252.347 248.382C252.12 248.508 251.867 248.574 251.59 248.578C251.32 248.584 251.064 248.545 250.824 248.463C250.558 248.372 250.327 248.232 250.13 248.044C249.941 247.852 249.813 247.628 249.746 247.371C249.678 247.115 249.695 246.838 249.797 246.541C249.943 246.117 250.208 245.83 250.592 245.679C250.985 245.524 251.45 245.538 251.987 245.723C252.304 245.832 252.553 245.96 252.736 246.107C252.927 246.251 253.069 246.392 253.163 246.53C253.259 246.662 253.32 246.764 253.345 246.836L253.191 247.282C253.022 247.054 252.831 246.869 252.619 246.725C252.409 246.575 252.171 246.454 251.905 246.363C251.659 246.278 251.446 246.241 251.266 246.249C251.092 246.261 250.948 246.31 250.833 246.398C250.718 246.486 250.633 246.609 250.579 246.767ZM251.156 244.716L250.978 244.029C251.184 243.966 251.45 243.923 251.776 243.9C252.108 243.88 252.476 243.94 252.881 244.079C253.223 244.196 253.501 244.352 253.717 244.546C253.942 244.736 254.09 244.953 254.162 245.197C254.24 245.443 254.23 245.709 254.133 245.993L253.057 249.124L252.298 248.863L253.338 245.837C253.39 245.685 253.407 245.553 253.389 245.441C253.373 245.322 253.328 245.218 253.252 245.129C253.183 245.041 253.093 244.964 252.981 244.898C252.87 244.831 252.748 244.775 252.615 244.73C252.4 244.656 252.195 244.614 252.001 244.603C251.813 244.595 251.647 244.606 251.502 244.634C251.358 244.662 251.243 244.69 251.156 244.716ZM261.264 248.867L260.319 251.618L259.56 251.358L260.472 248.701C260.601 248.328 260.625 248.029 260.547 247.804C260.475 247.581 260.297 247.421 260.012 247.323C259.804 247.252 259.608 247.234 259.426 247.271C259.246 247.301 259.087 247.384 258.948 247.52C258.809 247.656 258.701 247.838 258.622 248.066L257.71 250.722L256.951 250.461L257.863 247.805C257.992 247.432 258.017 247.133 257.938 246.908C257.866 246.685 257.688 246.525 257.403 246.427C257.195 246.356 256.999 246.338 256.817 246.374C256.637 246.405 256.478 246.488 256.339 246.624C256.2 246.76 256.092 246.942 256.014 247.17L255.101 249.826L254.342 249.565L255.841 245.201L256.6 245.462L256.382 246.098C256.599 245.897 256.827 245.77 257.064 245.717C257.308 245.666 257.566 245.688 257.838 245.781C258.141 245.885 258.375 246.047 258.54 246.266C258.714 246.482 258.807 246.736 258.819 247.03C259.064 246.81 259.323 246.673 259.597 246.619C259.872 246.558 260.155 246.577 260.446 246.677C260.744 246.779 260.974 246.933 261.137 247.137C261.3 247.342 261.391 247.592 261.409 247.888C261.436 248.18 261.388 248.507 261.264 248.867ZM263.401 252.783C262.996 252.644 262.668 252.425 262.417 252.127C262.174 251.824 262.023 251.472 261.963 251.069C261.91 250.669 261.96 250.245 262.115 249.796C262.271 249.34 262.496 248.972 262.791 248.692C263.092 248.413 263.436 248.234 263.823 248.155C264.218 248.079 264.63 248.114 265.06 248.262C265.49 248.409 265.825 248.627 266.066 248.915C266.315 249.198 266.464 249.536 266.513 249.928C266.563 250.319 266.508 250.746 266.349 251.208C266.334 251.252 266.315 251.298 266.291 251.347C266.276 251.391 266.266 251.42 266.262 251.432L262.533 250.152L262.755 249.506L265.886 250.582L265.432 250.914C265.462 250.889 265.497 250.848 265.538 250.791C265.581 250.728 265.61 250.674 265.625 250.63C265.714 250.371 265.737 250.128 265.695 249.901C265.659 249.677 265.568 249.479 265.421 249.309C265.275 249.138 265.078 249.011 264.832 248.926C264.541 248.826 264.269 248.803 264.017 248.858C263.773 248.909 263.554 249.032 263.36 249.226C263.174 249.417 263.021 249.679 262.899 250.012C262.782 250.354 262.736 250.663 262.761 250.94C262.786 251.218 262.881 251.455 263.046 251.654C263.211 251.852 263.443 252.002 263.74 252.104C264.037 252.206 264.321 252.233 264.593 252.185C264.866 252.13 265.127 251.997 265.377 251.786L265.86 252.387C265.506 252.675 265.123 252.855 264.709 252.925C264.305 252.991 263.869 252.944 263.401 252.783ZM267.267 252.509C267.31 252.673 267.368 252.831 267.443 252.984C267.518 253.137 267.616 253.273 267.738 253.392C267.868 253.508 268.021 253.596 268.198 253.657C268.413 253.73 268.597 253.741 268.75 253.687C268.911 253.629 269.021 253.515 269.08 253.344C269.132 253.192 269.125 253.049 269.059 252.913C269.001 252.773 268.908 252.642 268.78 252.52C268.654 252.392 268.517 252.267 268.368 252.145C268.204 252.004 268.041 251.849 267.88 251.681C267.727 251.508 267.613 251.317 267.536 251.106C267.469 250.892 267.478 250.659 267.565 250.406C267.654 250.146 267.794 249.954 267.986 249.829C268.184 249.706 268.404 249.64 268.647 249.632C268.897 249.626 269.139 249.663 269.373 249.743C269.607 249.824 269.812 249.937 269.988 250.082C270.171 250.23 270.32 250.394 270.434 250.575C270.549 250.755 270.622 250.943 270.654 251.138L269.914 251.318C269.85 251.113 269.745 250.925 269.598 250.754C269.458 250.586 269.274 250.462 269.047 250.384C268.889 250.33 268.741 250.318 268.603 250.349C268.465 250.379 268.371 250.467 268.321 250.612C268.282 250.726 268.292 250.843 268.35 250.962C268.408 251.081 268.495 251.199 268.61 251.316C268.725 251.433 268.848 251.55 268.978 251.665C269.196 251.853 269.389 252.043 269.556 252.235C269.726 252.421 269.843 252.616 269.906 252.822C269.976 253.03 269.967 253.264 269.878 253.523C269.747 253.902 269.5 254.171 269.134 254.328C268.776 254.488 268.372 254.49 267.923 254.336C267.632 254.236 267.387 254.095 267.187 253.914C266.99 253.726 266.838 253.522 266.73 253.301C266.628 253.082 266.566 252.873 266.542 252.674L267.267 252.509Z" fill="#9B51E0"/>
<ellipse cx="89.7839" cy="170.043" rx="22.2373" ry="20.5371" transform="rotate(18.957 89.7839 170.043)" fill="#9B51E0"/>
<path d="M84.5542 169.742L84.0851 171.108L79.2679 166.485L79.5445 165.68L80.3977 166.114L84.5542 169.742ZM80.2748 166.495L79.3377 166.282L79.6167 165.47L86.255 164.79L85.7883 166.149L80.2748 166.495ZM85.624 174.15L84.5035 173.765L92.5649 164.155L93.6785 164.537L85.624 174.15ZM93.7377 168.833L94.1924 167.509L99.2641 172.211L98.9875 173.016L98.0485 172.49L93.7377 168.833ZM98.1517 172.212L99.1943 172.414L98.9177 173.219L92.0249 173.819L92.482 172.488L98.1517 172.212Z" fill="white"/>
<defs>
<filter id="filter0_d_221_158" x="11.5907" y="0.949131" width="308.586" height="221.39" filterUnits="userSpaceOnUse" color-interpolation-filters="sRGB">
<feFlood flood-opacity="0" result="BackgroundImageFix"/>
<feColorMatrix in="SourceAlpha" type="matrix" values="0 0 0 0 0 0 0 0 0 0 0 0 0 0 0 0 0 0 127 0" result="hardAlpha"/>
<feOffset dx="12.5387" dy="10.8669"/>
<feGaussianBlur stdDeviation="22.9877"/>
<feComposite in2="hardAlpha" operator="out"/>
<feColorMatrix type="matrix" values="0 0 0 0 0 0 0 0 0 0 0 0 0 0 0 0 0 0 0.08 0"/>
<feBlend mode="normal" in2="BackgroundImageFix" result="effect1_dropShadow_221_158"/>
<feBlend mode="normal" in="SourceGraphic" in2="effect1_dropShadow_221_158" result="shape"/>
</filter>
<filter id="filter1_d_221_158" x="7.31237" y="93.1691" width="370.645" height="242.706" filterUnits="userSpaceOnUse" color-interpolation-filters="sRGB">
<feFlood flood-opacity="0" result="BackgroundImageFix"/>
<feColorMatrix in="SourceAlpha" type="matrix" values="0 0 0 0 0 0 0 0 0 0 0 0 0 0 0 0 0 0 127 0" result="hardAlpha"/>
<feOffset dx="12.5387" dy="10.8669"/>
<feGaussianBlur stdDeviation="22.9877"/>
<feComposite in2="hardAlpha" operator="out"/>
<feColorMatrix type="matrix" values="0 0 0 0 0 0 0 0 0 0 0 0 0 0 0 0 0 0 0.08 0"/>
<feBlend mode="normal" in2="BackgroundImageFix" result="effect1_dropShadow_221_158"/>
<feBlend mode="normal" in="SourceGraphic" in2="effect1_dropShadow_221_158" result="shape"/>
</filter>
</defs>
</svg>
